G04 #@! TF.GenerationSoftware,KiCad,Pcbnew,10.0.3*
G04 #@! TF.CreationDate,2026-06-25T13:09:48+05:30*
G04 #@! TF.ProjectId,ESP32_DHT,45535033-325f-4444-9854-2e6b69636164,rev?*
G04 #@! TF.SameCoordinates,Original*
G04 #@! TF.FileFunction,Copper,L2,Bot*
G04 #@! TF.FilePolarity,Positive*
%FSLAX46Y46*%
G04 Gerber Fmt 4.6, Leading zero omitted, Abs format (unit mm)*
G04 Created by KiCad (PCBNEW 10.0.3) date 2026-06-25 13:09:48*
%MOMM*%
%LPD*%
G01*
G04 APERTURE LIST*
G04 #@! TA.AperFunction,ComponentPad*
%ADD10O,1.200000X1.900000*%
G04 #@! TD*
G04 #@! TA.AperFunction,ComponentPad*
%ADD11C,1.450000*%
G04 #@! TD*
G04 #@! TA.AperFunction,ComponentPad*
%ADD12R,1.416000X1.416000*%
G04 #@! TD*
G04 #@! TA.AperFunction,ComponentPad*
%ADD13C,1.416000*%
G04 #@! TD*
G04 #@! TA.AperFunction,SMDPad,CuDef*
%ADD14R,0.400000X0.480000*%
G04 #@! TD*
G04 #@! TA.AperFunction,SMDPad,CuDef*
%ADD15R,0.800000X0.800000*%
G04 #@! TD*
G04 #@! TA.AperFunction,ViaPad*
%ADD16C,0.600000*%
G04 #@! TD*
G04 #@! TA.AperFunction,Conductor*
%ADD17C,0.200000*%
G04 #@! TD*
G04 #@! TA.AperFunction,Conductor*
%ADD18C,0.500000*%
G04 #@! TD*
G04 #@! TA.AperFunction,Conductor*
%ADD19C,0.250000*%
G04 #@! TD*
G04 APERTURE END LIST*
D10*
G04 #@! TO.P,J1,SH,Shield_SH*
G04 #@! TO.N,GND*
X91100000Y-109500000D03*
D11*
X92100000Y-106800000D03*
X97100000Y-106800000D03*
D10*
X98100000Y-109500000D03*
G04 #@! TD*
D12*
G04 #@! TO.P,IC2,1,VDD_1*
G04 #@! TO.N,Net-(IC2-VDD)*
X175250000Y-87075000D03*
D13*
G04 #@! TO.P,IC2,2,DATA_2*
G04 #@! TO.N,/IO4*
X177750000Y-87075000D03*
G04 #@! TO.P,IC2,3,NULL_3*
G04 #@! TO.N,unconnected-(IC2-NULL-Pad3)*
X180250000Y-87075000D03*
G04 #@! TO.P,IC2,4,GND_4*
G04 #@! TO.N,GND*
X182750000Y-87075000D03*
G04 #@! TD*
D14*
G04 #@! TO.P,D5,1,1_1*
G04 #@! TO.N,GND*
X93660000Y-103960000D03*
G04 #@! TO.P,D5,2,2_2*
G04 #@! TO.N,+5V*
X93660000Y-102640000D03*
G04 #@! TD*
D15*
G04 #@! TO.P,C2,1*
G04 #@! TO.N,+3V3*
X130500000Y-73250000D03*
G04 #@! TO.P,C2,2*
G04 #@! TO.N,GND*
X130500000Y-71750000D03*
G04 #@! TD*
D14*
G04 #@! TO.P,D7,1,1_1*
G04 #@! TO.N,GND*
X87960000Y-104120000D03*
G04 #@! TO.P,D7,2,2_2*
G04 #@! TO.N,/USB_DP*
X87960000Y-102800000D03*
G04 #@! TD*
G04 #@! TO.P,D6,1,1_1*
G04 #@! TO.N,GND*
X90860000Y-103960000D03*
G04 #@! TO.P,D6,2,2_2*
G04 #@! TO.N,/USB_DN*
X90860000Y-102640000D03*
G04 #@! TD*
D15*
G04 #@! TO.P,R1,1*
G04 #@! TO.N,+3V3*
X133500000Y-76500000D03*
G04 #@! TO.P,R1,2*
G04 #@! TO.N,/EN*
X133500000Y-75000000D03*
G04 #@! TD*
G04 #@! TO.P,C1,1*
G04 #@! TO.N,+3V3*
X133500000Y-73250000D03*
G04 #@! TO.P,C1,2*
G04 #@! TO.N,GND*
X133500000Y-71750000D03*
G04 #@! TD*
G04 #@! TO.P,C3,1*
G04 #@! TO.N,/EN*
X130500000Y-75300000D03*
G04 #@! TO.P,C3,2*
G04 #@! TO.N,GND*
X130500000Y-76800000D03*
G04 #@! TD*
D16*
G04 #@! TO.N,+5V*
X92600000Y-105700000D03*
G04 #@! TO.N,/RTS*
X120500000Y-87000000D03*
X112800000Y-87000000D03*
G04 #@! TO.N,/DTR*
X118300000Y-92300000D03*
X116200000Y-90300000D03*
G04 #@! TO.N,GND*
X109800000Y-93100000D03*
X108500000Y-89100000D03*
G04 #@! TO.N,/IO0*
X129450000Y-100250000D03*
X121900000Y-92900000D03*
G04 #@! TO.N,+5V*
X107200000Y-78600000D03*
X107000000Y-96200000D03*
X95360000Y-102060000D03*
G04 #@! TO.N,/USB_DP*
X87860000Y-100960000D03*
G04 #@! TO.N,/USB_DN*
X92060000Y-102760000D03*
X90860000Y-99960000D03*
G04 #@! TO.N,+3V3*
X103000000Y-90000000D03*
X105000000Y-91400000D03*
X128950000Y-73250000D03*
X135900000Y-73000000D03*
G04 #@! TO.N,/EN*
X135600000Y-74800000D03*
X128800000Y-75500000D03*
G04 #@! TO.N,Net-(IC1-RSTB)*
X107700000Y-99550000D03*
X108350000Y-92950000D03*
G04 #@! TO.N,/RXD*
X158600000Y-78500000D03*
X108500000Y-84800000D03*
G04 #@! TO.N,/TXD*
X107900000Y-85700000D03*
X157800000Y-82500000D03*
G04 #@! TD*
G04 #@! TO.N,+5V*
D17*
X92600000Y-105700000D02*
X92600000Y-103700000D01*
X92600000Y-103700000D02*
X93660000Y-102640000D01*
X92600000Y-105700000D02*
X92860000Y-105700000D01*
G04 #@! TO.N,/RTS*
X120500000Y-87000000D02*
X112800000Y-87000000D01*
G04 #@! TO.N,/DTR*
X118300000Y-92300000D02*
X118200000Y-92300000D01*
X118200000Y-92300000D02*
X116200000Y-90300000D01*
G04 #@! TO.N,/IO0*
X122100000Y-92900000D02*
X121900000Y-92900000D01*
X129450000Y-100250000D02*
X122100000Y-92900000D01*
G04 #@! TO.N,+5V*
D18*
X107800000Y-93389950D02*
X107500000Y-93089950D01*
X106700000Y-84700000D02*
X106700000Y-79100000D01*
X93860000Y-102640000D02*
X94780000Y-102640000D01*
X107500000Y-93089950D02*
X107500000Y-90200000D01*
X107800000Y-95400000D02*
X107800000Y-93389950D01*
X107000000Y-96200000D02*
X107800000Y-95400000D01*
X94780000Y-102640000D02*
X95360000Y-102060000D01*
X106900000Y-84900000D02*
X106700000Y-84700000D01*
X106700000Y-79100000D02*
X107200000Y-78600000D01*
X107500000Y-90200000D02*
X106900000Y-89600000D01*
X106900000Y-89600000D02*
X106900000Y-84900000D01*
G04 #@! TO.N,/USB_DP*
D19*
X87860000Y-102640000D02*
X87860000Y-100960000D01*
G04 #@! TO.N,/USB_DN*
D17*
X90860000Y-102640000D02*
X91940000Y-102640000D01*
X91940000Y-102640000D02*
X92060000Y-102760000D01*
X90860000Y-102640000D02*
X90860000Y-99960000D01*
G04 #@! TO.N,+3V3*
X134827818Y-73250000D02*
X133500000Y-73250000D01*
X133500000Y-73250000D02*
X135650000Y-73250000D01*
X103600000Y-90000000D02*
X103000000Y-90000000D01*
X130500000Y-73250000D02*
X133500000Y-73250000D01*
X136150000Y-75027818D02*
X134677818Y-76500000D01*
X135650000Y-73250000D02*
X135900000Y-73000000D01*
X130500000Y-73250000D02*
X128950000Y-73250000D01*
X136150000Y-74572182D02*
X136150000Y-75027818D01*
X134827818Y-73250000D02*
X136150000Y-74572182D01*
X134677818Y-76500000D02*
X133500000Y-76500000D01*
X105000000Y-91400000D02*
X103600000Y-90000000D01*
G04 #@! TO.N,/EN*
X133500000Y-75000000D02*
X135400000Y-75000000D01*
X130500000Y-75500000D02*
X133000000Y-75500000D01*
X128700000Y-75500000D02*
X128600000Y-75400000D01*
X133000000Y-75500000D02*
X133500000Y-75000000D01*
X128800000Y-75500000D02*
X128700000Y-75500000D01*
X130500000Y-75500000D02*
X128800000Y-75500000D01*
X135400000Y-75000000D02*
X135600000Y-74800000D01*
G04 #@! TO.N,Net-(IC1-RSTB)*
X108300000Y-98950000D02*
X108300000Y-96200000D01*
X108300000Y-93000000D02*
X108350000Y-92950000D01*
X108300000Y-96400000D02*
X108300000Y-93000000D01*
X107700000Y-99550000D02*
X108300000Y-98950000D01*
G04 #@! TO.N,/RXD*
X152300000Y-84800000D02*
X158600000Y-78500000D01*
X108500000Y-84800000D02*
X152300000Y-84800000D01*
G04 #@! TO.N,/TXD*
X107900000Y-85700000D02*
X154600000Y-85700000D01*
X154600000Y-85700000D02*
X157800000Y-82500000D01*
G04 #@! TD*
G04 #@! TA.AperFunction,Conductor*
G04 #@! TO.N,GND*
G36*
X188200000Y-63200000D02*
G01*
X188199999Y-63199999D01*
X188276908Y-63200220D01*
X188279245Y-63199488D01*
X188285518Y-63199531D01*
X188292006Y-63199741D01*
X188299995Y-63200000D01*
X188300000Y-63200000D01*
X188376742Y-63200000D01*
X188443781Y-63219685D01*
X188489536Y-63272489D01*
X188500739Y-63323253D01*
X188744398Y-103933057D01*
X188771028Y-108371332D01*
X188771030Y-108372076D01*
X188771030Y-112875499D01*
X188751345Y-112942538D01*
X188698541Y-112988293D01*
X188647030Y-112999499D01*
X83722711Y-112999499D01*
X83655672Y-112979814D01*
X83609917Y-112927010D01*
X83598712Y-112875992D01*
X83590448Y-110797648D01*
X84499500Y-110797648D01*
X84499500Y-111002351D01*
X84531522Y-111204534D01*
X84594781Y-111399223D01*
X84687715Y-111581613D01*
X84808028Y-111747213D01*
X84952786Y-111891971D01*
X85107749Y-112004556D01*
X85118390Y-112012287D01*
X85234607Y-112071503D01*
X85300776Y-112105218D01*
X85300778Y-112105218D01*
X85300781Y-112105220D01*
X85405137Y-112139127D01*
X85495465Y-112168477D01*
X85596557Y-112184488D01*
X85697648Y-112200500D01*
X85697649Y-112200500D01*
X85902351Y-112200500D01*
X85902352Y-112200500D01*
X86104534Y-112168477D01*
X86299219Y-112105220D01*
X86481610Y-112012287D01*
X86574590Y-111944732D01*
X86647213Y-111891971D01*
X86647215Y-111891968D01*
X86647219Y-111891966D01*
X86791966Y-111747219D01*
X86791968Y-111747215D01*
X86791971Y-111747213D01*
X86844732Y-111674590D01*
X86912287Y-111581610D01*
X87005220Y-111399219D01*
X87068477Y-111204534D01*
X87100500Y-111002352D01*
X87100500Y-110797648D01*
X87069568Y-110602352D01*
X87068477Y-110595465D01*
X87050054Y-110538768D01*
X87005220Y-110400781D01*
X87003624Y-110397648D01*
X184699500Y-110397648D01*
X184699500Y-110602351D01*
X184731522Y-110804534D01*
X184794781Y-110999223D01*
X184887715Y-111181613D01*
X185008028Y-111347213D01*
X185152786Y-111491971D01*
X185307749Y-111604556D01*
X185318390Y-111612287D01*
X185434607Y-111671503D01*
X185500776Y-111705218D01*
X185500778Y-111705218D01*
X185500781Y-111705220D01*
X185605137Y-111739127D01*
X185695465Y-111768477D01*
X185796557Y-111784488D01*
X185897648Y-111800500D01*
X185897649Y-111800500D01*
X186102351Y-111800500D01*
X186102352Y-111800500D01*
X186304534Y-111768477D01*
X186499219Y-111705220D01*
X186681610Y-111612287D01*
X186774590Y-111544732D01*
X186847213Y-111491971D01*
X186847215Y-111491968D01*
X186847219Y-111491966D01*
X186991966Y-111347219D01*
X186991968Y-111347215D01*
X186991971Y-111347213D01*
X187044732Y-111274590D01*
X187112287Y-111181610D01*
X187205220Y-110999219D01*
X187268477Y-110804534D01*
X187300500Y-110602352D01*
X187300500Y-110397648D01*
X187268477Y-110195466D01*
X187205220Y-110000781D01*
X187205218Y-110000778D01*
X187205218Y-110000776D01*
X187157960Y-109908028D01*
X187112287Y-109818390D01*
X187104556Y-109807749D01*
X186991971Y-109652786D01*
X186847213Y-109508028D01*
X186681613Y-109387715D01*
X186681612Y-109387714D01*
X186681610Y-109387713D01*
X186624653Y-109358691D01*
X186499223Y-109294781D01*
X186304534Y-109231522D01*
X186129995Y-109203878D01*
X186102352Y-109199500D01*
X185897648Y-109199500D01*
X185873329Y-109203351D01*
X185695465Y-109231522D01*
X185500776Y-109294781D01*
X185318386Y-109387715D01*
X185152786Y-109508028D01*
X185008028Y-109652786D01*
X184887715Y-109818386D01*
X184794781Y-110000776D01*
X184731522Y-110195465D01*
X184699500Y-110397648D01*
X87003624Y-110397648D01*
X86912287Y-110218390D01*
X86895631Y-110195465D01*
X86791971Y-110052786D01*
X86647213Y-109908028D01*
X86481613Y-109787715D01*
X86481612Y-109787714D01*
X86481610Y-109787713D01*
X86424653Y-109758691D01*
X86299223Y-109694781D01*
X86104534Y-109631522D01*
X85929995Y-109603878D01*
X85902352Y-109599500D01*
X85697648Y-109599500D01*
X85673329Y-109603351D01*
X85495465Y-109631522D01*
X85300776Y-109694781D01*
X85118386Y-109787715D01*
X84952786Y-109908028D01*
X84808028Y-110052786D01*
X84687715Y-110218386D01*
X84594781Y-110400776D01*
X84531522Y-110595465D01*
X84499500Y-110797648D01*
X83590448Y-110797648D01*
X83590431Y-110793269D01*
X83551019Y-100881153D01*
X87059500Y-100881153D01*
X87059500Y-101038846D01*
X87090261Y-101193489D01*
X87090264Y-101193501D01*
X87150602Y-101339172D01*
X87150609Y-101339184D01*
X87213602Y-101433459D01*
X87234480Y-101500136D01*
X87234500Y-101502350D01*
X87234500Y-102701610D01*
X87257117Y-102815314D01*
X87259500Y-102839505D01*
X87259500Y-103087869D01*
X87259501Y-103087876D01*
X87265908Y-103147483D01*
X87316202Y-103282328D01*
X87316206Y-103282335D01*
X87402452Y-103397544D01*
X87402455Y-103397547D01*
X87517664Y-103483793D01*
X87517671Y-103483797D01*
X87562618Y-103500561D01*
X87652517Y-103534091D01*
X87712127Y-103540500D01*
X88207872Y-103540499D01*
X88267483Y-103534091D01*
X88402331Y-103483796D01*
X88517546Y-103397546D01*
X88603796Y-103282331D01*
X88654091Y-103147483D01*
X88660500Y-103087873D01*
X88660499Y-102512128D01*
X88654091Y-102452517D01*
X88649118Y-102439185D01*
X88603797Y-102317671D01*
X88603793Y-102317664D01*
X88512232Y-102195355D01*
X88514625Y-102193563D01*
X88488327Y-102145373D01*
X88485500Y-102119045D01*
X88485500Y-101502350D01*
X88505185Y-101435311D01*
X88506398Y-101433459D01*
X88506809Y-101432843D01*
X88569394Y-101339179D01*
X88629737Y-101193497D01*
X88660500Y-101038842D01*
X88660500Y-100881158D01*
X88660500Y-100881155D01*
X88660499Y-100881153D01*
X88629738Y-100726510D01*
X88629737Y-100726503D01*
X88589427Y-100629185D01*
X88569397Y-100580827D01*
X88569390Y-100580814D01*
X88481789Y-100449711D01*
X88481786Y-100449707D01*
X88370292Y-100338213D01*
X88370288Y-100338210D01*
X88239185Y-100250609D01*
X88239172Y-100250602D01*
X88093501Y-100190264D01*
X88093489Y-100190261D01*
X87938845Y-100159500D01*
X87938842Y-100159500D01*
X87781158Y-100159500D01*
X87781155Y-100159500D01*
X87626510Y-100190261D01*
X87626498Y-100190264D01*
X87480827Y-100250602D01*
X87480814Y-100250609D01*
X87349711Y-100338210D01*
X87349707Y-100338213D01*
X87238213Y-100449707D01*
X87238210Y-100449711D01*
X87150609Y-100580814D01*
X87150602Y-100580827D01*
X87090264Y-100726498D01*
X87090261Y-100726510D01*
X87059500Y-100881153D01*
X83551019Y-100881153D01*
X83550997Y-100875559D01*
X83547043Y-99881153D01*
X90059500Y-99881153D01*
X90059500Y-100038846D01*
X90090261Y-100193489D01*
X90090264Y-100193501D01*
X90150602Y-100339172D01*
X90150609Y-100339185D01*
X90238602Y-100470874D01*
X90259480Y-100537551D01*
X90259500Y-100539765D01*
X90259500Y-102058561D01*
X90239815Y-102125600D01*
X90234767Y-102132872D01*
X90216204Y-102157668D01*
X90216202Y-102157671D01*
X90165910Y-102292513D01*
X90165909Y-102292517D01*
X90159500Y-102352127D01*
X90159500Y-102352134D01*
X90159500Y-102352135D01*
X90159500Y-102927870D01*
X90159501Y-102927876D01*
X90165908Y-102987483D01*
X90216202Y-103122328D01*
X90216206Y-103122335D01*
X90302452Y-103237544D01*
X90302455Y-103237547D01*
X90417664Y-103323793D01*
X90417671Y-103323797D01*
X90462618Y-103340561D01*
X90552517Y-103374091D01*
X90612127Y-103380500D01*
X91107872Y-103380499D01*
X91167483Y-103374091D01*
X91302331Y-103323796D01*
X91302490Y-103323676D01*
X91324623Y-103307109D01*
X91390087Y-103282691D01*
X91458360Y-103297542D01*
X91486615Y-103318694D01*
X91549707Y-103381786D01*
X91549711Y-103381789D01*
X91680814Y-103469390D01*
X91680827Y-103469397D01*
X91826498Y-103529735D01*
X91826503Y-103529737D01*
X91880602Y-103540498D01*
X91899690Y-103544295D01*
X91927818Y-103559008D01*
X91956701Y-103572198D01*
X91958557Y-103575087D01*
X91961601Y-103576679D01*
X91977309Y-103604264D01*
X91994476Y-103630976D01*
X91995136Y-103635571D01*
X91996175Y-103637395D01*
X91999499Y-103665911D01*
X91999499Y-103779057D01*
X91999499Y-103779059D01*
X91999500Y-103789053D01*
X91999500Y-105120234D01*
X91979815Y-105187273D01*
X91978602Y-105189125D01*
X91890609Y-105320814D01*
X91890602Y-105320827D01*
X91830264Y-105466498D01*
X91830261Y-105466510D01*
X91799500Y-105621153D01*
X91799500Y-105778846D01*
X91830261Y-105933489D01*
X91830264Y-105933501D01*
X91890602Y-106079172D01*
X91890609Y-106079185D01*
X91978210Y-106210288D01*
X91978213Y-106210292D01*
X92089707Y-106321786D01*
X92089711Y-106321789D01*
X92220814Y-106409390D01*
X92220827Y-106409397D01*
X92366498Y-106469735D01*
X92366503Y-106469737D01*
X92521153Y-106500499D01*
X92521156Y-106500500D01*
X92521158Y-106500500D01*
X92678844Y-106500500D01*
X92678845Y-106500499D01*
X92833497Y-106469737D01*
X92979179Y-106409394D01*
X93110289Y-106321789D01*
X93221789Y-106210289D01*
X93261003Y-106151598D01*
X93276421Y-106132814D01*
X93340520Y-106068716D01*
X93419577Y-105931784D01*
X93460500Y-105779057D01*
X93460500Y-105620943D01*
X93419577Y-105468216D01*
X93418585Y-105466498D01*
X93340524Y-105331290D01*
X93340518Y-105331282D01*
X93276422Y-105267186D01*
X93261000Y-105248395D01*
X93221397Y-105189124D01*
X93200520Y-105122446D01*
X93200500Y-105120234D01*
X93200500Y-104000096D01*
X93220185Y-103933057D01*
X93236815Y-103912419D01*
X93722415Y-103426818D01*
X93783738Y-103393334D01*
X93810096Y-103390500D01*
X94853920Y-103390500D01*
X94951462Y-103371096D01*
X94998913Y-103361658D01*
X95135495Y-103305084D01*
X95195072Y-103265276D01*
X95258416Y-103222952D01*
X95675299Y-102806067D01*
X95715524Y-102779191D01*
X95739179Y-102769394D01*
X95870289Y-102681789D01*
X95981789Y-102570289D01*
X96069394Y-102439179D01*
X96129737Y-102293497D01*
X96160500Y-102138842D01*
X96160500Y-101981158D01*
X96160500Y-101981155D01*
X96160499Y-101981153D01*
X96129738Y-101826510D01*
X96129737Y-101826503D01*
X96129735Y-101826498D01*
X96069397Y-101680827D01*
X96069390Y-101680814D01*
X95981789Y-101549711D01*
X95981786Y-101549707D01*
X95870292Y-101438213D01*
X95870288Y-101438210D01*
X95739185Y-101350609D01*
X95739172Y-101350602D01*
X95593501Y-101290264D01*
X95593489Y-101290261D01*
X95438845Y-101259500D01*
X95438842Y-101259500D01*
X95281158Y-101259500D01*
X95281155Y-101259500D01*
X95126510Y-101290261D01*
X95126498Y-101290264D01*
X94980827Y-101350602D01*
X94980814Y-101350609D01*
X94849711Y-101438210D01*
X94849707Y-101438213D01*
X94738213Y-101549707D01*
X94738207Y-101549715D01*
X94650607Y-101680818D01*
X94650604Y-101680823D01*
X94640806Y-101704477D01*
X94636176Y-101711405D01*
X94635080Y-101716446D01*
X94613929Y-101744700D01*
X94505451Y-101853180D01*
X94444128Y-101886666D01*
X94417769Y-101889500D01*
X93786081Y-101889500D01*
X93747788Y-101897117D01*
X93723596Y-101899500D01*
X93412130Y-101899500D01*
X93412123Y-101899501D01*
X93352516Y-101905908D01*
X93217671Y-101956202D01*
X93217664Y-101956206D01*
X93102455Y-102042452D01*
X93102452Y-102042455D01*
X93016206Y-102157664D01*
X93016202Y-102157671D01*
X92965909Y-102292515D01*
X92964664Y-102297785D01*
X92930087Y-102358499D01*
X92868175Y-102390882D01*
X92798584Y-102384652D01*
X92743408Y-102341787D01*
X92740886Y-102338155D01*
X92681789Y-102249711D01*
X92681786Y-102249707D01*
X92570292Y-102138213D01*
X92570288Y-102138210D01*
X92439185Y-102050609D01*
X92439172Y-102050602D01*
X92293501Y-101990264D01*
X92293489Y-101990261D01*
X92138845Y-101959500D01*
X92138842Y-101959500D01*
X91981158Y-101959500D01*
X91981155Y-101959500D01*
X91826511Y-101990260D01*
X91826501Y-101990263D01*
X91730421Y-102030061D01*
X91722244Y-102031687D01*
X91717904Y-102034477D01*
X91682969Y-102039500D01*
X91584500Y-102039500D01*
X91517461Y-102019815D01*
X91471706Y-101967011D01*
X91460500Y-101915500D01*
X91460500Y-100539765D01*
X91480185Y-100472726D01*
X91481398Y-100470874D01*
X91569390Y-100339185D01*
X91569390Y-100339184D01*
X91569394Y-100339179D01*
X91629737Y-100193497D01*
X91660500Y-100038842D01*
X91660500Y-99881158D01*
X91660500Y-99881155D01*
X91660499Y-99881153D01*
X91658442Y-99870814D01*
X91629737Y-99726503D01*
X91629735Y-99726498D01*
X91569397Y-99580827D01*
X91569390Y-99580814D01*
X91481789Y-99449711D01*
X91481786Y-99449707D01*
X91370292Y-99338213D01*
X91370288Y-99338210D01*
X91239185Y-99250609D01*
X91239172Y-99250602D01*
X91093501Y-99190264D01*
X91093489Y-99190261D01*
X90938845Y-99159500D01*
X90938842Y-99159500D01*
X90781158Y-99159500D01*
X90781155Y-99159500D01*
X90626510Y-99190261D01*
X90626498Y-99190264D01*
X90480827Y-99250602D01*
X90480814Y-99250609D01*
X90349711Y-99338210D01*
X90349707Y-99338213D01*
X90238213Y-99449707D01*
X90238210Y-99449711D01*
X90150609Y-99580814D01*
X90150602Y-99580827D01*
X90090264Y-99726498D01*
X90090261Y-99726510D01*
X90059500Y-99881153D01*
X83547043Y-99881153D01*
X83547021Y-99875559D01*
X83507440Y-89921153D01*
X102199500Y-89921153D01*
X102199500Y-90078846D01*
X102230261Y-90233489D01*
X102230264Y-90233501D01*
X102290602Y-90379172D01*
X102290609Y-90379185D01*
X102378210Y-90510288D01*
X102378213Y-90510292D01*
X102489707Y-90621786D01*
X102489711Y-90621789D01*
X102620814Y-90709390D01*
X102620827Y-90709397D01*
X102705000Y-90744262D01*
X102766503Y-90769737D01*
X102921153Y-90800499D01*
X102921156Y-90800500D01*
X102921158Y-90800500D01*
X103078844Y-90800500D01*
X103078845Y-90800499D01*
X103233497Y-90769737D01*
X103359894Y-90717381D01*
X103429363Y-90709913D01*
X103491842Y-90741188D01*
X103495027Y-90744262D01*
X104165425Y-91414660D01*
X104198910Y-91475983D01*
X104199361Y-91478149D01*
X104230261Y-91633491D01*
X104230264Y-91633501D01*
X104290602Y-91779172D01*
X104290609Y-91779185D01*
X104378210Y-91910288D01*
X104378213Y-91910292D01*
X104489707Y-92021786D01*
X104489711Y-92021789D01*
X104620814Y-92109390D01*
X104620827Y-92109397D01*
X104717646Y-92149500D01*
X104766503Y-92169737D01*
X104921153Y-92200499D01*
X104921156Y-92200500D01*
X104921158Y-92200500D01*
X105078844Y-92200500D01*
X105078845Y-92200499D01*
X105233497Y-92169737D01*
X105379179Y-92109394D01*
X105510289Y-92021789D01*
X105621789Y-91910289D01*
X105709394Y-91779179D01*
X105769737Y-91633497D01*
X105800500Y-91478842D01*
X105800500Y-91321158D01*
X105800500Y-91321155D01*
X105800499Y-91321153D01*
X105769738Y-91166510D01*
X105769737Y-91166503D01*
X105729655Y-91069735D01*
X105709397Y-91020827D01*
X105709390Y-91020814D01*
X105621789Y-90889711D01*
X105621786Y-90889707D01*
X105510292Y-90778213D01*
X105510288Y-90778210D01*
X105379185Y-90690609D01*
X105379172Y-90690602D01*
X105233501Y-90630264D01*
X105233491Y-90630261D01*
X105078149Y-90599361D01*
X105016238Y-90566976D01*
X105014660Y-90565425D01*
X104087590Y-89638355D01*
X104087588Y-89638352D01*
X103968717Y-89519481D01*
X103968716Y-89519480D01*
X103881904Y-89469360D01*
X103881904Y-89469359D01*
X103881900Y-89469358D01*
X103831785Y-89440423D01*
X103679057Y-89399499D01*
X103679054Y-89399499D01*
X103579764Y-89399499D01*
X103512725Y-89379814D01*
X103510873Y-89378601D01*
X103379185Y-89290609D01*
X103379172Y-89290602D01*
X103233501Y-89230264D01*
X103233489Y-89230261D01*
X103078845Y-89199500D01*
X103078842Y-89199500D01*
X102921158Y-89199500D01*
X102921155Y-89199500D01*
X102766510Y-89230261D01*
X102766498Y-89230264D01*
X102620827Y-89290602D01*
X102620814Y-89290609D01*
X102489711Y-89378210D01*
X102489707Y-89378213D01*
X102378213Y-89489707D01*
X102378210Y-89489711D01*
X102290609Y-89620814D01*
X102290602Y-89620827D01*
X102230264Y-89766498D01*
X102230261Y-89766510D01*
X102199500Y-89921153D01*
X83507440Y-89921153D01*
X83507418Y-89915559D01*
X83500501Y-88176001D01*
X83500500Y-88175508D01*
X83500500Y-84773920D01*
X105949499Y-84773920D01*
X105978340Y-84918907D01*
X105978343Y-84918917D01*
X106034914Y-85055492D01*
X106034915Y-85055494D01*
X106034916Y-85055495D01*
X106064319Y-85099500D01*
X106117048Y-85178416D01*
X106121306Y-85182674D01*
X106127799Y-85192152D01*
X106135185Y-85214819D01*
X106146636Y-85235734D01*
X106148937Y-85257022D01*
X106149446Y-85258584D01*
X106149205Y-85259503D01*
X106149500Y-85262230D01*
X106149500Y-89673918D01*
X106149500Y-89673920D01*
X106149499Y-89673920D01*
X106178340Y-89818907D01*
X106178343Y-89818917D01*
X106234912Y-89955488D01*
X106234916Y-89955495D01*
X106252014Y-89981084D01*
X106252015Y-89981087D01*
X106317046Y-90078414D01*
X106317052Y-90078421D01*
X106713181Y-90474548D01*
X106746666Y-90535871D01*
X106749500Y-90562229D01*
X106749500Y-93163868D01*
X106749500Y-93163870D01*
X106749499Y-93163870D01*
X106778340Y-93308857D01*
X106778343Y-93308867D01*
X106834912Y-93445438D01*
X106834916Y-93445445D01*
X106855641Y-93476462D01*
X106855642Y-93476465D01*
X106855643Y-93476465D01*
X106917048Y-93568366D01*
X107013182Y-93664500D01*
X107046666Y-93725821D01*
X107049500Y-93752180D01*
X107049500Y-95037769D01*
X107029815Y-95104808D01*
X107013181Y-95125450D01*
X106684703Y-95453927D01*
X106644480Y-95480805D01*
X106620819Y-95490606D01*
X106620818Y-95490607D01*
X106489715Y-95578207D01*
X106489707Y-95578213D01*
X106378213Y-95689707D01*
X106378210Y-95689711D01*
X106290609Y-95820814D01*
X106290602Y-95820827D01*
X106230264Y-95966498D01*
X106230261Y-95966510D01*
X106199500Y-96121153D01*
X106199500Y-96278846D01*
X106230261Y-96433489D01*
X106230264Y-96433501D01*
X106290602Y-96579172D01*
X106290609Y-96579185D01*
X106378210Y-96710288D01*
X106378213Y-96710292D01*
X106489707Y-96821786D01*
X106489711Y-96821789D01*
X106620814Y-96909390D01*
X106620827Y-96909397D01*
X106766498Y-96969735D01*
X106766503Y-96969737D01*
X106921153Y-97000499D01*
X106921156Y-97000500D01*
X106921158Y-97000500D01*
X107078844Y-97000500D01*
X107078845Y-97000499D01*
X107233497Y-96969737D01*
X107379179Y-96909394D01*
X107506609Y-96824248D01*
X107573286Y-96803370D01*
X107640666Y-96821854D01*
X107687357Y-96873833D01*
X107699500Y-96927350D01*
X107699500Y-98632152D01*
X107679815Y-98699191D01*
X107627011Y-98744946D01*
X107599692Y-98753769D01*
X107466508Y-98780261D01*
X107466498Y-98780264D01*
X107320827Y-98840602D01*
X107320814Y-98840609D01*
X107189711Y-98928210D01*
X107189707Y-98928213D01*
X107078213Y-99039707D01*
X107078210Y-99039711D01*
X106990609Y-99170814D01*
X106990602Y-99170827D01*
X106930264Y-99316498D01*
X106930261Y-99316510D01*
X106899500Y-99471153D01*
X106899500Y-99628846D01*
X106930261Y-99783489D01*
X106930264Y-99783501D01*
X106990602Y-99929172D01*
X106990609Y-99929185D01*
X107078210Y-100060288D01*
X107078213Y-100060292D01*
X107189707Y-100171786D01*
X107189711Y-100171789D01*
X107320814Y-100259390D01*
X107320827Y-100259397D01*
X107415799Y-100298735D01*
X107466503Y-100319737D01*
X107621153Y-100350499D01*
X107621156Y-100350500D01*
X107621158Y-100350500D01*
X107778844Y-100350500D01*
X107778845Y-100350499D01*
X107933497Y-100319737D01*
X108079179Y-100259394D01*
X108210289Y-100171789D01*
X108321789Y-100060289D01*
X108409394Y-99929179D01*
X108469737Y-99783497D01*
X108500500Y-99628842D01*
X108500500Y-99628839D01*
X108500637Y-99628151D01*
X108509402Y-99611394D01*
X108513422Y-99592915D01*
X108532162Y-99567880D01*
X108533021Y-99566240D01*
X108534527Y-99564707D01*
X108658504Y-99440729D01*
X108658506Y-99440729D01*
X108668714Y-99430520D01*
X108668716Y-99430520D01*
X108780520Y-99318716D01*
X108854681Y-99190265D01*
X108854682Y-99190264D01*
X108856667Y-99186823D01*
X108859577Y-99181785D01*
X108900500Y-99029057D01*
X108900500Y-98870943D01*
X108900500Y-96120943D01*
X108900500Y-93582940D01*
X108920185Y-93515901D01*
X108936820Y-93495258D01*
X108971786Y-93460292D01*
X108971789Y-93460289D01*
X109059394Y-93329179D01*
X109119737Y-93183497D01*
X109150500Y-93028842D01*
X109150500Y-92871158D01*
X109150500Y-92871155D01*
X109150499Y-92871153D01*
X109119738Y-92716510D01*
X109119737Y-92716503D01*
X109119735Y-92716498D01*
X109059397Y-92570827D01*
X109059390Y-92570814D01*
X108971789Y-92439711D01*
X108971786Y-92439707D01*
X108860292Y-92328213D01*
X108860288Y-92328210D01*
X108729185Y-92240609D01*
X108729172Y-92240602D01*
X108583501Y-92180264D01*
X108583489Y-92180261D01*
X108428845Y-92149500D01*
X108428842Y-92149500D01*
X108374500Y-92149500D01*
X108307461Y-92129815D01*
X108261706Y-92077011D01*
X108250500Y-92025500D01*
X108250500Y-90221153D01*
X115399500Y-90221153D01*
X115399500Y-90378846D01*
X115430261Y-90533489D01*
X115430264Y-90533501D01*
X115490602Y-90679172D01*
X115490609Y-90679185D01*
X115578210Y-90810288D01*
X115578213Y-90810292D01*
X115689707Y-90921786D01*
X115689711Y-90921789D01*
X115820814Y-91009390D01*
X115820827Y-91009397D01*
X115966498Y-91069735D01*
X115966503Y-91069737D01*
X116031147Y-91082595D01*
X116121849Y-91100638D01*
X116183760Y-91133023D01*
X116185339Y-91134574D01*
X117490256Y-92439491D01*
X117523741Y-92500814D01*
X117524192Y-92502980D01*
X117530261Y-92533491D01*
X117530263Y-92533499D01*
X117590602Y-92679172D01*
X117590609Y-92679185D01*
X117678210Y-92810288D01*
X117678213Y-92810292D01*
X117789707Y-92921786D01*
X117789711Y-92921789D01*
X117920814Y-93009390D01*
X117920827Y-93009397D01*
X118066498Y-93069735D01*
X118066503Y-93069737D01*
X118221153Y-93100499D01*
X118221156Y-93100500D01*
X118221158Y-93100500D01*
X118378844Y-93100500D01*
X118378845Y-93100499D01*
X118533497Y-93069737D01*
X118679179Y-93009394D01*
X118810289Y-92921789D01*
X118910925Y-92821153D01*
X121099500Y-92821153D01*
X121099500Y-92978846D01*
X121130261Y-93133489D01*
X121130264Y-93133501D01*
X121190602Y-93279172D01*
X121190609Y-93279185D01*
X121278210Y-93410288D01*
X121278213Y-93410292D01*
X121389707Y-93521786D01*
X121389711Y-93521789D01*
X121520814Y-93609390D01*
X121520827Y-93609397D01*
X121653855Y-93664498D01*
X121666503Y-93669737D01*
X121818157Y-93699903D01*
X121821153Y-93700499D01*
X121821156Y-93700500D01*
X121821158Y-93700500D01*
X121978844Y-93700500D01*
X121984907Y-93699903D01*
X121985152Y-93702396D01*
X122043811Y-93707633D01*
X122086116Y-93735351D01*
X128615425Y-100264660D01*
X128648910Y-100325983D01*
X128649361Y-100328149D01*
X128680261Y-100483491D01*
X128680264Y-100483501D01*
X128740602Y-100629172D01*
X128740609Y-100629185D01*
X128828210Y-100760288D01*
X128828213Y-100760292D01*
X128939707Y-100871786D01*
X128939711Y-100871789D01*
X129070814Y-100959390D01*
X129070827Y-100959397D01*
X129216498Y-101019735D01*
X129216503Y-101019737D01*
X129371153Y-101050499D01*
X129371156Y-101050500D01*
X129371158Y-101050500D01*
X129528844Y-101050500D01*
X129528845Y-101050499D01*
X129683497Y-101019737D01*
X129829179Y-100959394D01*
X129960289Y-100871789D01*
X130071789Y-100760289D01*
X130159394Y-100629179D01*
X130219737Y-100483497D01*
X130250500Y-100328842D01*
X130250500Y-100171158D01*
X130250500Y-100171155D01*
X130250499Y-100171153D01*
X130228447Y-100060292D01*
X130219737Y-100016503D01*
X130183569Y-99929185D01*
X130159397Y-99870827D01*
X130159390Y-99870814D01*
X130071789Y-99739711D01*
X130071786Y-99739707D01*
X129960292Y-99628213D01*
X129960288Y-99628210D01*
X129829185Y-99540609D01*
X129829172Y-99540602D01*
X129683501Y-99480264D01*
X129683491Y-99480261D01*
X129528151Y-99449362D01*
X129466241Y-99416977D01*
X129464662Y-99415426D01*
X122654650Y-92605415D01*
X122627770Y-92565187D01*
X122609394Y-92520821D01*
X122555198Y-92439711D01*
X122521789Y-92389710D01*
X122410292Y-92278213D01*
X122410288Y-92278210D01*
X122279185Y-92190609D01*
X122279172Y-92190602D01*
X122133501Y-92130264D01*
X122133489Y-92130261D01*
X121978845Y-92099500D01*
X121978842Y-92099500D01*
X121821158Y-92099500D01*
X121821155Y-92099500D01*
X121666510Y-92130261D01*
X121666498Y-92130264D01*
X121520827Y-92190602D01*
X121520814Y-92190609D01*
X121389711Y-92278210D01*
X121389707Y-92278213D01*
X121278213Y-92389707D01*
X121278210Y-92389711D01*
X121190609Y-92520814D01*
X121190602Y-92520827D01*
X121130264Y-92666498D01*
X121130261Y-92666510D01*
X121099500Y-92821153D01*
X118910925Y-92821153D01*
X118921789Y-92810289D01*
X119009394Y-92679179D01*
X119069737Y-92533497D01*
X119100500Y-92378842D01*
X119100500Y-92221158D01*
X119100500Y-92221155D01*
X119100499Y-92221153D01*
X119090271Y-92169735D01*
X119069737Y-92066503D01*
X119051215Y-92021786D01*
X119009397Y-91920827D01*
X119009390Y-91920814D01*
X118921789Y-91789711D01*
X118921786Y-91789707D01*
X118810292Y-91678213D01*
X118810288Y-91678210D01*
X118679185Y-91590609D01*
X118679172Y-91590602D01*
X118533501Y-91530264D01*
X118533489Y-91530261D01*
X118378845Y-91499500D01*
X118378842Y-91499500D01*
X118300097Y-91499500D01*
X118233058Y-91479815D01*
X118212416Y-91463181D01*
X117034574Y-90285339D01*
X117001089Y-90224016D01*
X117000638Y-90221849D01*
X116972191Y-90078842D01*
X116969737Y-90066503D01*
X116934355Y-89981082D01*
X116909397Y-89920827D01*
X116909390Y-89920814D01*
X116821789Y-89789711D01*
X116821786Y-89789707D01*
X116710292Y-89678213D01*
X116710288Y-89678210D01*
X116579185Y-89590609D01*
X116579172Y-89590602D01*
X116433501Y-89530264D01*
X116433489Y-89530261D01*
X116278845Y-89499500D01*
X116278842Y-89499500D01*
X116121158Y-89499500D01*
X116121155Y-89499500D01*
X115966510Y-89530261D01*
X115966498Y-89530264D01*
X115820827Y-89590602D01*
X115820814Y-89590609D01*
X115689711Y-89678210D01*
X115689707Y-89678213D01*
X115578213Y-89789707D01*
X115578210Y-89789711D01*
X115490609Y-89920814D01*
X115490602Y-89920827D01*
X115430264Y-90066498D01*
X115430261Y-90066510D01*
X115399500Y-90221153D01*
X108250500Y-90221153D01*
X108250500Y-90126079D01*
X108221658Y-89981087D01*
X108221656Y-89981082D01*
X108165087Y-89844511D01*
X108165080Y-89844498D01*
X108082952Y-89721585D01*
X108035285Y-89673918D01*
X107978416Y-89617049D01*
X107851074Y-89489707D01*
X107686819Y-89325451D01*
X107653334Y-89264128D01*
X107650500Y-89237770D01*
X107650500Y-86617648D01*
X107670185Y-86550609D01*
X107722989Y-86504854D01*
X107792147Y-86494910D01*
X107798672Y-86496027D01*
X107821158Y-86500500D01*
X107978844Y-86500500D01*
X107978845Y-86500499D01*
X108133497Y-86469737D01*
X108279179Y-86409394D01*
X108279185Y-86409390D01*
X108410875Y-86321398D01*
X108477553Y-86300520D01*
X108479766Y-86300500D01*
X112072650Y-86300500D01*
X112139689Y-86320185D01*
X112185444Y-86372989D01*
X112195388Y-86442147D01*
X112175752Y-86493391D01*
X112090609Y-86620814D01*
X112090602Y-86620827D01*
X112030264Y-86766498D01*
X112030261Y-86766510D01*
X111999500Y-86921153D01*
X111999500Y-87078846D01*
X112030261Y-87233489D01*
X112030264Y-87233501D01*
X112090602Y-87379172D01*
X112090609Y-87379185D01*
X112178210Y-87510288D01*
X112178213Y-87510292D01*
X112289707Y-87621786D01*
X112289711Y-87621789D01*
X112420814Y-87709390D01*
X112420827Y-87709397D01*
X112566498Y-87769735D01*
X112566503Y-87769737D01*
X112721153Y-87800499D01*
X112721156Y-87800500D01*
X112721158Y-87800500D01*
X112878844Y-87800500D01*
X112878845Y-87800499D01*
X113033497Y-87769737D01*
X113179179Y-87709394D01*
X113265529Y-87651697D01*
X113310875Y-87621398D01*
X113377553Y-87600520D01*
X113379766Y-87600500D01*
X119920234Y-87600500D01*
X119987273Y-87620185D01*
X119989125Y-87621398D01*
X120120814Y-87709390D01*
X120120827Y-87709397D01*
X120266498Y-87769735D01*
X120266503Y-87769737D01*
X120421153Y-87800499D01*
X120421156Y-87800500D01*
X120421158Y-87800500D01*
X120578844Y-87800500D01*
X120578845Y-87800499D01*
X120733497Y-87769737D01*
X120879179Y-87709394D01*
X121010289Y-87621789D01*
X121121789Y-87510289D01*
X121209394Y-87379179D01*
X121269737Y-87233497D01*
X121300500Y-87078842D01*
X121300500Y-86921158D01*
X121300500Y-86921155D01*
X121300499Y-86921153D01*
X121269738Y-86766510D01*
X121269737Y-86766503D01*
X121251022Y-86721320D01*
X121209397Y-86620827D01*
X121209390Y-86620814D01*
X121124248Y-86493391D01*
X121103370Y-86426714D01*
X121121854Y-86359334D01*
X121166606Y-86319135D01*
X174041500Y-86319135D01*
X174041500Y-87830870D01*
X174041501Y-87830876D01*
X174047908Y-87890483D01*
X174098202Y-88025328D01*
X174098206Y-88025335D01*
X174184452Y-88140544D01*
X174184455Y-88140547D01*
X174299664Y-88226793D01*
X174299671Y-88226797D01*
X174434517Y-88277091D01*
X174434516Y-88277091D01*
X174441444Y-88277835D01*
X174494127Y-88283500D01*
X176005872Y-88283499D01*
X176065483Y-88277091D01*
X176200331Y-88226796D01*
X176315546Y-88140546D01*
X176401796Y-88025331D01*
X176452091Y-87890483D01*
X176458500Y-87830873D01*
X176458499Y-87718733D01*
X176478183Y-87651697D01*
X176530987Y-87605942D01*
X176600145Y-87595998D01*
X176663701Y-87625022D01*
X176692983Y-87662440D01*
X176716396Y-87708389D01*
X176716398Y-87708392D01*
X176828208Y-87862285D01*
X176962715Y-87996792D01*
X177116608Y-88108602D01*
X177179298Y-88140544D01*
X177286092Y-88194959D01*
X177286094Y-88194959D01*
X177286097Y-88194961D01*
X177383070Y-88226469D01*
X177467008Y-88253743D01*
X177654884Y-88283500D01*
X177654889Y-88283500D01*
X177845116Y-88283500D01*
X178032991Y-88253743D01*
X178213903Y-88194961D01*
X178383392Y-88108602D01*
X178537285Y-87996792D01*
X178671792Y-87862285D01*
X178783602Y-87708392D01*
X178869961Y-87538903D01*
X178882069Y-87501635D01*
X178921507Y-87443962D01*
X178985866Y-87416764D01*
X179054712Y-87428679D01*
X179106188Y-87475923D01*
X179117929Y-87501633D01*
X179120742Y-87510289D01*
X179130040Y-87538907D01*
X179187510Y-87651697D01*
X179216398Y-87708392D01*
X179328208Y-87862285D01*
X179462715Y-87996792D01*
X179616608Y-88108602D01*
X179679298Y-88140544D01*
X179786092Y-88194959D01*
X179786094Y-88194959D01*
X179786097Y-88194961D01*
X179883070Y-88226469D01*
X179967008Y-88253743D01*
X180154884Y-88283500D01*
X180154889Y-88283500D01*
X180345116Y-88283500D01*
X180532991Y-88253743D01*
X180713903Y-88194961D01*
X180883392Y-88108602D01*
X181037285Y-87996792D01*
X181171792Y-87862285D01*
X181283602Y-87708392D01*
X181369961Y-87538903D01*
X181428743Y-87357991D01*
X181458500Y-87170116D01*
X181458500Y-86979883D01*
X181428743Y-86792008D01*
X181373122Y-86620827D01*
X181369961Y-86611097D01*
X181369959Y-86611093D01*
X181369959Y-86611092D01*
X181307016Y-86487561D01*
X181283602Y-86441608D01*
X181171792Y-86287715D01*
X181037285Y-86153208D01*
X180883392Y-86041398D01*
X180713907Y-85955040D01*
X180532991Y-85896256D01*
X180345116Y-85866500D01*
X180345111Y-85866500D01*
X180154889Y-85866500D01*
X180154884Y-85866500D01*
X179967008Y-85896256D01*
X179786092Y-85955040D01*
X179616607Y-86041398D01*
X179528806Y-86105189D01*
X179462715Y-86153208D01*
X179462713Y-86153210D01*
X179462712Y-86153210D01*
X179328210Y-86287712D01*
X179328210Y-86287713D01*
X179328208Y-86287715D01*
X179305380Y-86319135D01*
X179216398Y-86441607D01*
X179130040Y-86611093D01*
X179117931Y-86648362D01*
X179078492Y-86706037D01*
X179014134Y-86733235D01*
X178945287Y-86721320D01*
X178893812Y-86674075D01*
X178882069Y-86648362D01*
X178873122Y-86620827D01*
X178869961Y-86611097D01*
X178783602Y-86441608D01*
X178671792Y-86287715D01*
X178537285Y-86153208D01*
X178383392Y-86041398D01*
X178213907Y-85955040D01*
X178032991Y-85896256D01*
X177845116Y-85866500D01*
X177845111Y-85866500D01*
X177654889Y-85866500D01*
X177654884Y-85866500D01*
X177467008Y-85896256D01*
X177286092Y-85955040D01*
X177116607Y-86041398D01*
X177028806Y-86105189D01*
X176962715Y-86153208D01*
X176962713Y-86153210D01*
X176962712Y-86153210D01*
X176828210Y-86287712D01*
X176828210Y-86287713D01*
X176828208Y-86287715D01*
X176805380Y-86319135D01*
X176716396Y-86441609D01*
X176692983Y-86487561D01*
X176645009Y-86538356D01*
X176577188Y-86555151D01*
X176511053Y-86532613D01*
X176467602Y-86477898D01*
X176458499Y-86431265D01*
X176458499Y-86319129D01*
X176458498Y-86319123D01*
X176458497Y-86319116D01*
X176453299Y-86270757D01*
X176452091Y-86259516D01*
X176401797Y-86124671D01*
X176401793Y-86124664D01*
X176315547Y-86009455D01*
X176315544Y-86009452D01*
X176200335Y-85923206D01*
X176200328Y-85923202D01*
X176065482Y-85872908D01*
X176065483Y-85872908D01*
X176005883Y-85866501D01*
X176005881Y-85866500D01*
X176005873Y-85866500D01*
X176005864Y-85866500D01*
X174494129Y-85866500D01*
X174494123Y-85866501D01*
X174434516Y-85872908D01*
X174299671Y-85923202D01*
X174299664Y-85923206D01*
X174184455Y-86009452D01*
X174184452Y-86009455D01*
X174098206Y-86124664D01*
X174098202Y-86124671D01*
X174047908Y-86259517D01*
X174042197Y-86312643D01*
X174041501Y-86319123D01*
X174041500Y-86319135D01*
X121166606Y-86319135D01*
X121173833Y-86312643D01*
X121227350Y-86300500D01*
X154513331Y-86300500D01*
X154513347Y-86300501D01*
X154520943Y-86300501D01*
X154679054Y-86300501D01*
X154679057Y-86300501D01*
X154831785Y-86259577D01*
X154886050Y-86228247D01*
X154968716Y-86180520D01*
X155080520Y-86068716D01*
X155080520Y-86068714D01*
X155090724Y-86058511D01*
X155090727Y-86058506D01*
X157814662Y-83334572D01*
X157875983Y-83301089D01*
X157878150Y-83300638D01*
X157936085Y-83289113D01*
X158033497Y-83269737D01*
X158179179Y-83209394D01*
X158310289Y-83121789D01*
X158421789Y-83010289D01*
X158509394Y-82879179D01*
X158569737Y-82733497D01*
X158600500Y-82578842D01*
X158600500Y-82421158D01*
X158600500Y-82421155D01*
X158600499Y-82421153D01*
X158569738Y-82266510D01*
X158569738Y-82266508D01*
X158569737Y-82266503D01*
X158569735Y-82266498D01*
X158509397Y-82120827D01*
X158509390Y-82120814D01*
X158421789Y-81989711D01*
X158421786Y-81989707D01*
X158310292Y-81878213D01*
X158310288Y-81878210D01*
X158179185Y-81790609D01*
X158179172Y-81790602D01*
X158033501Y-81730264D01*
X158033489Y-81730261D01*
X157878845Y-81699500D01*
X157878842Y-81699500D01*
X157721158Y-81699500D01*
X157721155Y-81699500D01*
X157566510Y-81730261D01*
X157566498Y-81730264D01*
X157420827Y-81790602D01*
X157420814Y-81790609D01*
X157289711Y-81878210D01*
X157289707Y-81878213D01*
X157178213Y-81989707D01*
X157178210Y-81989711D01*
X157090609Y-82120814D01*
X157090602Y-82120827D01*
X157030264Y-82266498D01*
X157030261Y-82266508D01*
X156999361Y-82421850D01*
X156966976Y-82483761D01*
X156965425Y-82485339D01*
X154387584Y-85063181D01*
X154326261Y-85096666D01*
X154299903Y-85099500D01*
X153149097Y-85099500D01*
X153082058Y-85079815D01*
X153036303Y-85027011D01*
X153026359Y-84957853D01*
X153055384Y-84894297D01*
X153061416Y-84887819D01*
X155828421Y-82120814D01*
X158614662Y-79334572D01*
X158675983Y-79301089D01*
X158678150Y-79300638D01*
X158736085Y-79289113D01*
X158833497Y-79269737D01*
X158979179Y-79209394D01*
X159110289Y-79121789D01*
X159221789Y-79010289D01*
X159309394Y-78879179D01*
X159369737Y-78733497D01*
X159400500Y-78578842D01*
X159400500Y-78421158D01*
X159400500Y-78421155D01*
X159400499Y-78421153D01*
X159369738Y-78266510D01*
X159369738Y-78266508D01*
X159369737Y-78266503D01*
X159350812Y-78220814D01*
X159309397Y-78120827D01*
X159309390Y-78120814D01*
X159221789Y-77989711D01*
X159221786Y-77989707D01*
X159110292Y-77878213D01*
X159110288Y-77878210D01*
X158979185Y-77790609D01*
X158979172Y-77790602D01*
X158833501Y-77730264D01*
X158833489Y-77730261D01*
X158678845Y-77699500D01*
X158678842Y-77699500D01*
X158521158Y-77699500D01*
X158521155Y-77699500D01*
X158366510Y-77730261D01*
X158366498Y-77730264D01*
X158220827Y-77790602D01*
X158220814Y-77790609D01*
X158089711Y-77878210D01*
X158089707Y-77878213D01*
X157978213Y-77989707D01*
X157978210Y-77989711D01*
X157890609Y-78120814D01*
X157890602Y-78120827D01*
X157830264Y-78266498D01*
X157830261Y-78266508D01*
X157799361Y-78421850D01*
X157766976Y-78483761D01*
X157765425Y-78485339D01*
X152087584Y-84163181D01*
X152026261Y-84196666D01*
X151999903Y-84199500D01*
X109079766Y-84199500D01*
X109012727Y-84179815D01*
X109010875Y-84178602D01*
X108879185Y-84090609D01*
X108879172Y-84090602D01*
X108733501Y-84030264D01*
X108733489Y-84030261D01*
X108578845Y-83999500D01*
X108578842Y-83999500D01*
X108421158Y-83999500D01*
X108421155Y-83999500D01*
X108266510Y-84030261D01*
X108266498Y-84030264D01*
X108120827Y-84090602D01*
X108120814Y-84090609D01*
X107989711Y-84178210D01*
X107989707Y-84178213D01*
X107878213Y-84289707D01*
X107878210Y-84289711D01*
X107790609Y-84420814D01*
X107790604Y-84420823D01*
X107761454Y-84491200D01*
X107755076Y-84499113D01*
X107752388Y-84508914D01*
X107733524Y-84525857D01*
X107717613Y-84545603D01*
X107707969Y-84548812D01*
X107700409Y-84555604D01*
X107675379Y-84559659D01*
X107651319Y-84567668D01*
X107641470Y-84565154D01*
X107631439Y-84566780D01*
X107608190Y-84556660D01*
X107583620Y-84550389D01*
X107574988Y-84542207D01*
X107567376Y-84538894D01*
X107543791Y-84512638D01*
X107522710Y-84481088D01*
X107482952Y-84421584D01*
X107482950Y-84421582D01*
X107479092Y-84416881D01*
X107481196Y-84415153D01*
X107453334Y-84364128D01*
X107450500Y-84337770D01*
X107450500Y-79462230D01*
X107459144Y-79432790D01*
X107465667Y-79402805D01*
X107469422Y-79397787D01*
X107470185Y-79395191D01*
X107486814Y-79374552D01*
X107515297Y-79346069D01*
X107555528Y-79319189D01*
X107579179Y-79309394D01*
X107710289Y-79221789D01*
X107821789Y-79110289D01*
X107909394Y-78979179D01*
X107969737Y-78833497D01*
X108000500Y-78678842D01*
X108000500Y-78521158D01*
X108000500Y-78521155D01*
X108000499Y-78521153D01*
X107980746Y-78421850D01*
X107969737Y-78366503D01*
X107935855Y-78284703D01*
X107909397Y-78220827D01*
X107909390Y-78220814D01*
X107821789Y-78089711D01*
X107821786Y-78089707D01*
X107710292Y-77978213D01*
X107710288Y-77978210D01*
X107579185Y-77890609D01*
X107579172Y-77890602D01*
X107433501Y-77830264D01*
X107433489Y-77830261D01*
X107278845Y-77799500D01*
X107278842Y-77799500D01*
X107121158Y-77799500D01*
X107121155Y-77799500D01*
X106966510Y-77830261D01*
X106966498Y-77830264D01*
X106820827Y-77890602D01*
X106820814Y-77890609D01*
X106689711Y-77978210D01*
X106689707Y-77978213D01*
X106578213Y-78089707D01*
X106578207Y-78089715D01*
X106490607Y-78220818D01*
X106490606Y-78220819D01*
X106480805Y-78244480D01*
X106453927Y-78284703D01*
X106117050Y-78621581D01*
X106117049Y-78621582D01*
X106117048Y-78621584D01*
X106078791Y-78678842D01*
X106071507Y-78689743D01*
X106071506Y-78689744D01*
X106034914Y-78744507D01*
X105978343Y-78881082D01*
X105978340Y-78881092D01*
X105949500Y-79026079D01*
X105949500Y-79026082D01*
X105949500Y-84773918D01*
X105949500Y-84773920D01*
X105949499Y-84773920D01*
X83500500Y-84773920D01*
X83500500Y-75320943D01*
X127999499Y-75320943D01*
X127999499Y-75479057D01*
X127999499Y-75479059D01*
X127999500Y-75489053D01*
X127999500Y-75578846D01*
X128030261Y-75733489D01*
X128030264Y-75733501D01*
X128090602Y-75879172D01*
X128090609Y-75879185D01*
X128178210Y-76010288D01*
X128178213Y-76010292D01*
X128289707Y-76121786D01*
X128289711Y-76121789D01*
X128420814Y-76209390D01*
X128420827Y-76209397D01*
X128566498Y-76269735D01*
X128566503Y-76269737D01*
X128721153Y-76300499D01*
X128721156Y-76300500D01*
X128721158Y-76300500D01*
X128878844Y-76300500D01*
X128878845Y-76300499D01*
X129033497Y-76269737D01*
X129179179Y-76209394D01*
X129277352Y-76143797D01*
X129310875Y-76121398D01*
X129377553Y-76100520D01*
X129379766Y-76100500D01*
X129758561Y-76100500D01*
X129825600Y-76120185D01*
X129832872Y-76125233D01*
X129857668Y-76143795D01*
X129857671Y-76143797D01*
X129992517Y-76194091D01*
X129992516Y-76194091D01*
X129999444Y-76194835D01*
X130052127Y-76200500D01*
X130947872Y-76200499D01*
X131007483Y-76194091D01*
X131142331Y-76143796D01*
X131167128Y-76125233D01*
X131232592Y-76100816D01*
X131241439Y-76100500D01*
X132475500Y-76100500D01*
X132542539Y-76120185D01*
X132588294Y-76172989D01*
X132599500Y-76224500D01*
X132599500Y-76947870D01*
X132599501Y-76947876D01*
X132605908Y-77007483D01*
X132656202Y-77142328D01*
X132656206Y-77142335D01*
X132742452Y-77257544D01*
X132742455Y-77257547D01*
X132857664Y-77343793D01*
X132857671Y-77343797D01*
X132992517Y-77394091D01*
X132992516Y-77394091D01*
X132999444Y-77394835D01*
X133052127Y-77400500D01*
X133947872Y-77400499D01*
X134007483Y-77394091D01*
X134142331Y-77343796D01*
X134257546Y-77257546D01*
X134337914Y-77150188D01*
X134341569Y-77147451D01*
X134343467Y-77143297D01*
X134369281Y-77126706D01*
X134393847Y-77108318D01*
X134399476Y-77107302D01*
X134402245Y-77105523D01*
X134437180Y-77100500D01*
X134591149Y-77100500D01*
X134591165Y-77100501D01*
X134598761Y-77100501D01*
X134756872Y-77100501D01*
X134756875Y-77100501D01*
X134909603Y-77059577D01*
X134959722Y-77030639D01*
X135046534Y-76980520D01*
X135158338Y-76868716D01*
X135158338Y-76868714D01*
X135168546Y-76858507D01*
X135168547Y-76858504D01*
X136630520Y-75396534D01*
X136709577Y-75259602D01*
X136750501Y-75106875D01*
X136750501Y-74948760D01*
X136750501Y-74941165D01*
X136750500Y-74941147D01*
X136750500Y-74661242D01*
X136750501Y-74661229D01*
X136750501Y-74493126D01*
X136727131Y-74405909D01*
X136709577Y-74340398D01*
X136642529Y-74224266D01*
X136630524Y-74203472D01*
X136630518Y-74203464D01*
X136300457Y-73873403D01*
X136266972Y-73812080D01*
X136271956Y-73742388D01*
X136313828Y-73686455D01*
X136319222Y-73682637D01*
X136410289Y-73621789D01*
X136521789Y-73510289D01*
X136609394Y-73379179D01*
X136669737Y-73233497D01*
X136700500Y-73078842D01*
X136700500Y-72921158D01*
X136700500Y-72921155D01*
X136700499Y-72921153D01*
X136669738Y-72766510D01*
X136669737Y-72766503D01*
X136669735Y-72766498D01*
X136609397Y-72620827D01*
X136609390Y-72620814D01*
X136521789Y-72489711D01*
X136521786Y-72489707D01*
X136410292Y-72378213D01*
X136410288Y-72378210D01*
X136279185Y-72290609D01*
X136279172Y-72290602D01*
X136133501Y-72230264D01*
X136133489Y-72230261D01*
X135978845Y-72199500D01*
X135978842Y-72199500D01*
X135821158Y-72199500D01*
X135821155Y-72199500D01*
X135666510Y-72230261D01*
X135666498Y-72230264D01*
X135520827Y-72290602D01*
X135520814Y-72290609D01*
X135389711Y-72378210D01*
X135389707Y-72378213D01*
X135278210Y-72489710D01*
X135208266Y-72594391D01*
X135202174Y-72599481D01*
X135198877Y-72606703D01*
X135175749Y-72621566D01*
X135154654Y-72639196D01*
X135145279Y-72641147D01*
X135140099Y-72644477D01*
X135105164Y-72649500D01*
X134914487Y-72649500D01*
X134914471Y-72649499D01*
X134906875Y-72649499D01*
X134748761Y-72649499D01*
X134741165Y-72649499D01*
X134741149Y-72649500D01*
X134437180Y-72649500D01*
X134370141Y-72629815D01*
X134337913Y-72599811D01*
X134333856Y-72594391D01*
X134257546Y-72492454D01*
X134200167Y-72449500D01*
X134142335Y-72406206D01*
X134142328Y-72406202D01*
X134007482Y-72355908D01*
X134007483Y-72355908D01*
X133947883Y-72349501D01*
X133947881Y-72349500D01*
X133947873Y-72349500D01*
X133947864Y-72349500D01*
X133052129Y-72349500D01*
X133052123Y-72349501D01*
X132992516Y-72355908D01*
X132857671Y-72406202D01*
X132857664Y-72406206D01*
X132742456Y-72492452D01*
X132742455Y-72492453D01*
X132742454Y-72492454D01*
X132666144Y-72594391D01*
X132662087Y-72599811D01*
X132606153Y-72641682D01*
X132562820Y-72649500D01*
X131437180Y-72649500D01*
X131370141Y-72629815D01*
X131337913Y-72599811D01*
X131333856Y-72594391D01*
X131257546Y-72492454D01*
X131200167Y-72449500D01*
X131142335Y-72406206D01*
X131142328Y-72406202D01*
X131007482Y-72355908D01*
X131007483Y-72355908D01*
X130947883Y-72349501D01*
X130947881Y-72349500D01*
X130947873Y-72349500D01*
X130947864Y-72349500D01*
X130052129Y-72349500D01*
X130052123Y-72349501D01*
X129992516Y-72355908D01*
X129857671Y-72406202D01*
X129857664Y-72406206D01*
X129742456Y-72492452D01*
X129742455Y-72492453D01*
X129742454Y-72492454D01*
X129666144Y-72594391D01*
X129662087Y-72599811D01*
X129658430Y-72602548D01*
X129656533Y-72606703D01*
X129630718Y-72623293D01*
X129606153Y-72641682D01*
X129600523Y-72642697D01*
X129597755Y-72644477D01*
X129562820Y-72649500D01*
X129529766Y-72649500D01*
X129462727Y-72629815D01*
X129460875Y-72628602D01*
X129329185Y-72540609D01*
X129329172Y-72540602D01*
X129183501Y-72480264D01*
X129183489Y-72480261D01*
X129028845Y-72449500D01*
X129028842Y-72449500D01*
X128871158Y-72449500D01*
X128871155Y-72449500D01*
X128716510Y-72480261D01*
X128716498Y-72480264D01*
X128570827Y-72540602D01*
X128570814Y-72540609D01*
X128439711Y-72628210D01*
X128439707Y-72628213D01*
X128328213Y-72739707D01*
X128328210Y-72739711D01*
X128240609Y-72870814D01*
X128240602Y-72870827D01*
X128180264Y-73016498D01*
X128180261Y-73016510D01*
X128149500Y-73171153D01*
X128149500Y-73328846D01*
X128180261Y-73483489D01*
X128180264Y-73483501D01*
X128240602Y-73629172D01*
X128240609Y-73629185D01*
X128328210Y-73760288D01*
X128328213Y-73760292D01*
X128439707Y-73871786D01*
X128439711Y-73871789D01*
X128570814Y-73959390D01*
X128570827Y-73959397D01*
X128716498Y-74019735D01*
X128716503Y-74019737D01*
X128838883Y-74044080D01*
X128871153Y-74050499D01*
X128871156Y-74050500D01*
X128871158Y-74050500D01*
X129028844Y-74050500D01*
X129028845Y-74050499D01*
X129183497Y-74019737D01*
X129329179Y-73959394D01*
X129329185Y-73959390D01*
X129460875Y-73871398D01*
X129478921Y-73865747D01*
X129494831Y-73855523D01*
X129525792Y-73851071D01*
X129527553Y-73850520D01*
X129529766Y-73850500D01*
X129562820Y-73850500D01*
X129629859Y-73870185D01*
X129662085Y-73900187D01*
X129742454Y-74007546D01*
X129766749Y-74025733D01*
X129857664Y-74093793D01*
X129857671Y-74093797D01*
X129992517Y-74144091D01*
X129992516Y-74144091D01*
X129999444Y-74144835D01*
X130052127Y-74150500D01*
X130947872Y-74150499D01*
X131007483Y-74144091D01*
X131142331Y-74093796D01*
X131257546Y-74007546D01*
X131337914Y-73900188D01*
X131393847Y-73858318D01*
X131437180Y-73850500D01*
X132562820Y-73850500D01*
X132563007Y-73850554D01*
X132563193Y-73850501D01*
X132596487Y-73860386D01*
X132629859Y-73870185D01*
X132630049Y-73870350D01*
X132630173Y-73870387D01*
X132631268Y-73871410D01*
X132656777Y-73893580D01*
X132659544Y-73896793D01*
X132742454Y-74007546D01*
X132777571Y-74033834D01*
X132786395Y-74044080D01*
X132795458Y-74064085D01*
X132808620Y-74081668D01*
X132809593Y-74095286D01*
X132815228Y-74107722D01*
X132812037Y-74129451D01*
X132813604Y-74151360D01*
X132807060Y-74163343D01*
X132805077Y-74176851D01*
X132790644Y-74193406D01*
X132780118Y-74212683D01*
X132766750Y-74224266D01*
X132742452Y-74242455D01*
X132656206Y-74357664D01*
X132656202Y-74357671D01*
X132605908Y-74492517D01*
X132599501Y-74552116D01*
X132599500Y-74552135D01*
X132599500Y-74775500D01*
X132579815Y-74842539D01*
X132527011Y-74888294D01*
X132475500Y-74899500D01*
X131516977Y-74899500D01*
X131449938Y-74879815D01*
X131404183Y-74827011D01*
X131396733Y-74799865D01*
X131395876Y-74800068D01*
X131394092Y-74792520D01*
X131343797Y-74657671D01*
X131343793Y-74657664D01*
X131257547Y-74542455D01*
X131257544Y-74542452D01*
X131142335Y-74456206D01*
X131142328Y-74456202D01*
X131007482Y-74405908D01*
X131007483Y-74405908D01*
X130947883Y-74399501D01*
X130947881Y-74399500D01*
X130947873Y-74399500D01*
X130947864Y-74399500D01*
X130052129Y-74399500D01*
X130052123Y-74399501D01*
X129992516Y-74405908D01*
X129857671Y-74456202D01*
X129857664Y-74456206D01*
X129742455Y-74542452D01*
X129742452Y-74542455D01*
X129656206Y-74657664D01*
X129656202Y-74657671D01*
X129605908Y-74792517D01*
X129605761Y-74793141D01*
X129605762Y-74793147D01*
X129605757Y-74793156D01*
X129604126Y-74800062D01*
X129602752Y-74799737D01*
X129592130Y-74822996D01*
X129579571Y-74853312D01*
X129577688Y-74854618D01*
X129576737Y-74856703D01*
X129549138Y-74874439D01*
X129522177Y-74893157D01*
X129519283Y-74893625D01*
X129517959Y-74894477D01*
X129483024Y-74899500D01*
X129379766Y-74899500D01*
X129312727Y-74879815D01*
X129310875Y-74878602D01*
X129179185Y-74790609D01*
X129179172Y-74790602D01*
X129033501Y-74730264D01*
X129033489Y-74730261D01*
X128878845Y-74699500D01*
X128878842Y-74699500D01*
X128721158Y-74699500D01*
X128721155Y-74699500D01*
X128566510Y-74730261D01*
X128566498Y-74730264D01*
X128420827Y-74790602D01*
X128420815Y-74790609D01*
X128289712Y-74878210D01*
X128289708Y-74878213D01*
X128283413Y-74884508D01*
X128257745Y-74904202D01*
X128231284Y-74919480D01*
X128119480Y-75031284D01*
X128040423Y-75168214D01*
X128040423Y-75168215D01*
X127999499Y-75320943D01*
X83500500Y-75320943D01*
X83500500Y-66897648D01*
X183199500Y-66897648D01*
X183199500Y-67102351D01*
X183231522Y-67304534D01*
X183294781Y-67499223D01*
X183387715Y-67681613D01*
X183508028Y-67847213D01*
X183652786Y-67991971D01*
X183807749Y-68104556D01*
X183818390Y-68112287D01*
X183934607Y-68171503D01*
X184000776Y-68205218D01*
X184000778Y-68205218D01*
X184000781Y-68205220D01*
X184105137Y-68239127D01*
X184195465Y-68268477D01*
X184296557Y-68284488D01*
X184397648Y-68300500D01*
X184397649Y-68300500D01*
X184602351Y-68300500D01*
X184602352Y-68300500D01*
X184804534Y-68268477D01*
X184999219Y-68205220D01*
X185181610Y-68112287D01*
X185274590Y-68044732D01*
X185347213Y-67991971D01*
X185347215Y-67991968D01*
X185347219Y-67991966D01*
X185491966Y-67847219D01*
X185491968Y-67847215D01*
X185491971Y-67847213D01*
X185544732Y-67774590D01*
X185612287Y-67681610D01*
X185705220Y-67499219D01*
X185768477Y-67304534D01*
X185800500Y-67102352D01*
X185800500Y-66897648D01*
X185768477Y-66695466D01*
X185705220Y-66500781D01*
X185705218Y-66500778D01*
X185705218Y-66500776D01*
X185649776Y-66391966D01*
X185612287Y-66318390D01*
X185560579Y-66247219D01*
X185491971Y-66152786D01*
X185347213Y-66008028D01*
X185181613Y-65887715D01*
X185181612Y-65887714D01*
X185181610Y-65887713D01*
X185124653Y-65858691D01*
X184999223Y-65794781D01*
X184804534Y-65731522D01*
X184629995Y-65703878D01*
X184602352Y-65699500D01*
X184397648Y-65699500D01*
X184373329Y-65703351D01*
X184195465Y-65731522D01*
X184000776Y-65794781D01*
X183818386Y-65887715D01*
X183652786Y-66008028D01*
X183508028Y-66152786D01*
X183387715Y-66318386D01*
X183294781Y-66500776D01*
X183231522Y-66695465D01*
X183199500Y-66897648D01*
X83500500Y-66897648D01*
X83500500Y-65297648D01*
X84899500Y-65297648D01*
X84899500Y-65502351D01*
X84931522Y-65704534D01*
X84994781Y-65899223D01*
X85087715Y-66081613D01*
X85208028Y-66247213D01*
X85352786Y-66391971D01*
X85502546Y-66500776D01*
X85518390Y-66512287D01*
X85634607Y-66571503D01*
X85700776Y-66605218D01*
X85700778Y-66605218D01*
X85700781Y-66605220D01*
X85805137Y-66639127D01*
X85895465Y-66668477D01*
X85996557Y-66684488D01*
X86097648Y-66700500D01*
X86097649Y-66700500D01*
X86302351Y-66700500D01*
X86302352Y-66700500D01*
X86504534Y-66668477D01*
X86699219Y-66605220D01*
X86881610Y-66512287D01*
X86974590Y-66444732D01*
X87047213Y-66391971D01*
X87047215Y-66391968D01*
X87047219Y-66391966D01*
X87191966Y-66247219D01*
X87191968Y-66247215D01*
X87191971Y-66247213D01*
X87260575Y-66152786D01*
X87312287Y-66081610D01*
X87405220Y-65899219D01*
X87468477Y-65704534D01*
X87500500Y-65502352D01*
X87500500Y-65297648D01*
X87468477Y-65095466D01*
X87405220Y-64900781D01*
X87405218Y-64900778D01*
X87405218Y-64900776D01*
X87371503Y-64834607D01*
X87312287Y-64718390D01*
X87304556Y-64707749D01*
X87191971Y-64552786D01*
X87047213Y-64408028D01*
X86881613Y-64287715D01*
X86881612Y-64287714D01*
X86881610Y-64287713D01*
X86824653Y-64258691D01*
X86699223Y-64194781D01*
X86504534Y-64131522D01*
X86329995Y-64103878D01*
X86302352Y-64099500D01*
X86097648Y-64099500D01*
X86073329Y-64103351D01*
X85895465Y-64131522D01*
X85700776Y-64194781D01*
X85518386Y-64287715D01*
X85352786Y-64408028D01*
X85208028Y-64552786D01*
X85087715Y-64718386D01*
X84994781Y-64900776D01*
X84931522Y-65095465D01*
X84899500Y-65297648D01*
X83500500Y-65297648D01*
X83500500Y-63024641D01*
X83520185Y-62957602D01*
X83572989Y-62911847D01*
X83624847Y-62900643D01*
X188200000Y-63200000D01*
G37*
G04 #@! TD.AperFunction*
G04 #@! TD*
M02*
