M48
; DRILL file KiCad 10.0.3 date 2026-06-25T13:10:47
; FORMAT={-:-/ absolute / metric / decimal}
; #@! TF.CreationDate,2026-06-25T13:10:47+05:30
; #@! TF.GenerationSoftware,Kicad,Pcbnew,10.0.3
; #@! TF.FileFunction,MixedPlating,1,2
FMAT,2
METRIC
; #@! TA.AperFunction,Plated,PTH,ViaDrill
T1C0.300
; #@! TA.AperFunction,Plated,PTH,ComponentDrill
T2C0.600
; #@! TA.AperFunction,Plated,PTH,ComponentDrill
T3C0.850
; #@! TA.AperFunction,Plated,PTH,ComponentDrill
T4C0.910
; #@! TA.AperFunction,NonPlated,NPTH,ComponentDrill
T5C2.100
%
G90
G05
T1
X87.86Y-100.96
X90.86Y-99.96
X92.06Y-102.76
X92.6Y-105.7
X95.36Y-102.06
X103.0Y-90.0
X105.0Y-91.4
X107.0Y-96.2
X107.2Y-78.6
X107.7Y-99.55
X107.9Y-85.7
X108.35Y-92.95
X108.5Y-84.8
X108.5Y-89.1
X109.8Y-93.1
X112.8Y-87.0
X116.2Y-90.3
X118.3Y-92.3
X120.5Y-87.0
X121.9Y-92.9
X128.8Y-75.5
X128.95Y-73.25
X129.45Y-100.25
X135.6Y-74.8
X135.9Y-73.0
X157.8Y-82.5
X158.6Y-78.5
T3
X92.1Y-106.8
X97.1Y-106.8
T4
X175.25Y-87.075
X177.75Y-87.075
X180.25Y-87.075
X182.75Y-87.075
T5
X85.8Y-110.9
X86.2Y-65.4
X184.5Y-67.0
X186.0Y-110.5
T2
G00X91.1Y-109.85
M15
G01X91.1Y-109.15
M16
G05
G00X98.1Y-109.15
M15
G01X98.1Y-109.85
M16
G05
M30
