G04 #@! TF.GenerationSoftware,KiCad,Pcbnew,10.0.3*
G04 #@! TF.CreationDate,2026-06-25T13:09:48+05:30*
G04 #@! TF.ProjectId,ESP32_DHT,45535033-325f-4444-9854-2e6b69636164,rev?*
G04 #@! TF.SameCoordinates,Original*
G04 #@! TF.FileFunction,Legend,Bot*
G04 #@! TF.FilePolarity,Positive*
%FSLAX46Y46*%
G04 Gerber Fmt 4.6, Leading zero omitted, Abs format (unit mm)*
G04 Created by KiCad (PCBNEW 10.0.3) date 2026-06-25 13:09:48*
%MOMM*%
%LPD*%
G01*
G04 APERTURE LIST*
%ADD10C,0.254000*%
%ADD11C,0.150000*%
%ADD12C,0.100000*%
%ADD13C,0.120000*%
G04 APERTURE END LIST*
D10*
X96934318Y-102722618D02*
X95664318Y-102722618D01*
X95664318Y-102722618D02*
X95664318Y-103024999D01*
X95664318Y-103024999D02*
X95724794Y-103206428D01*
X95724794Y-103206428D02*
X95845746Y-103327380D01*
X95845746Y-103327380D02*
X95966699Y-103387857D01*
X95966699Y-103387857D02*
X96208603Y-103448333D01*
X96208603Y-103448333D02*
X96390032Y-103448333D01*
X96390032Y-103448333D02*
X96631937Y-103387857D01*
X96631937Y-103387857D02*
X96752889Y-103327380D01*
X96752889Y-103327380D02*
X96873842Y-103206428D01*
X96873842Y-103206428D02*
X96934318Y-103024999D01*
X96934318Y-103024999D02*
X96934318Y-102722618D01*
X95664318Y-104597380D02*
X95664318Y-103992618D01*
X95664318Y-103992618D02*
X96269080Y-103932142D01*
X96269080Y-103932142D02*
X96208603Y-103992618D01*
X96208603Y-103992618D02*
X96148127Y-104113571D01*
X96148127Y-104113571D02*
X96148127Y-104415952D01*
X96148127Y-104415952D02*
X96208603Y-104536904D01*
X96208603Y-104536904D02*
X96269080Y-104597380D01*
X96269080Y-104597380D02*
X96390032Y-104657857D01*
X96390032Y-104657857D02*
X96692413Y-104657857D01*
X96692413Y-104657857D02*
X96813365Y-104597380D01*
X96813365Y-104597380D02*
X96873842Y-104536904D01*
X96873842Y-104536904D02*
X96934318Y-104415952D01*
X96934318Y-104415952D02*
X96934318Y-104113571D01*
X96934318Y-104113571D02*
X96873842Y-103992618D01*
X96873842Y-103992618D02*
X96813365Y-103932142D01*
D11*
X131959580Y-70233333D02*
X132007200Y-70185714D01*
X132007200Y-70185714D02*
X132054819Y-70042857D01*
X132054819Y-70042857D02*
X132054819Y-69947619D01*
X132054819Y-69947619D02*
X132007200Y-69804762D01*
X132007200Y-69804762D02*
X131911961Y-69709524D01*
X131911961Y-69709524D02*
X131816723Y-69661905D01*
X131816723Y-69661905D02*
X131626247Y-69614286D01*
X131626247Y-69614286D02*
X131483390Y-69614286D01*
X131483390Y-69614286D02*
X131292914Y-69661905D01*
X131292914Y-69661905D02*
X131197676Y-69709524D01*
X131197676Y-69709524D02*
X131102438Y-69804762D01*
X131102438Y-69804762D02*
X131054819Y-69947619D01*
X131054819Y-69947619D02*
X131054819Y-70042857D01*
X131054819Y-70042857D02*
X131102438Y-70185714D01*
X131102438Y-70185714D02*
X131150057Y-70233333D01*
X131150057Y-70614286D02*
X131102438Y-70661905D01*
X131102438Y-70661905D02*
X131054819Y-70757143D01*
X131054819Y-70757143D02*
X131054819Y-70995238D01*
X131054819Y-70995238D02*
X131102438Y-71090476D01*
X131102438Y-71090476D02*
X131150057Y-71138095D01*
X131150057Y-71138095D02*
X131245295Y-71185714D01*
X131245295Y-71185714D02*
X131340533Y-71185714D01*
X131340533Y-71185714D02*
X131483390Y-71138095D01*
X131483390Y-71138095D02*
X132054819Y-70566667D01*
X132054819Y-70566667D02*
X132054819Y-71185714D01*
D10*
X86434318Y-102322618D02*
X85164318Y-102322618D01*
X85164318Y-102322618D02*
X85164318Y-102624999D01*
X85164318Y-102624999D02*
X85224794Y-102806428D01*
X85224794Y-102806428D02*
X85345746Y-102927380D01*
X85345746Y-102927380D02*
X85466699Y-102987857D01*
X85466699Y-102987857D02*
X85708603Y-103048333D01*
X85708603Y-103048333D02*
X85890032Y-103048333D01*
X85890032Y-103048333D02*
X86131937Y-102987857D01*
X86131937Y-102987857D02*
X86252889Y-102927380D01*
X86252889Y-102927380D02*
X86373842Y-102806428D01*
X86373842Y-102806428D02*
X86434318Y-102624999D01*
X86434318Y-102624999D02*
X86434318Y-102322618D01*
X85164318Y-103471666D02*
X85164318Y-104318333D01*
X85164318Y-104318333D02*
X86434318Y-103774047D01*
X90334318Y-98622618D02*
X89064318Y-98622618D01*
X89064318Y-98622618D02*
X89064318Y-98924999D01*
X89064318Y-98924999D02*
X89124794Y-99106428D01*
X89124794Y-99106428D02*
X89245746Y-99227380D01*
X89245746Y-99227380D02*
X89366699Y-99287857D01*
X89366699Y-99287857D02*
X89608603Y-99348333D01*
X89608603Y-99348333D02*
X89790032Y-99348333D01*
X89790032Y-99348333D02*
X90031937Y-99287857D01*
X90031937Y-99287857D02*
X90152889Y-99227380D01*
X90152889Y-99227380D02*
X90273842Y-99106428D01*
X90273842Y-99106428D02*
X90334318Y-98924999D01*
X90334318Y-98924999D02*
X90334318Y-98622618D01*
X89064318Y-100436904D02*
X89064318Y-100194999D01*
X89064318Y-100194999D02*
X89124794Y-100074047D01*
X89124794Y-100074047D02*
X89185270Y-100013571D01*
X89185270Y-100013571D02*
X89366699Y-99892618D01*
X89366699Y-99892618D02*
X89608603Y-99832142D01*
X89608603Y-99832142D02*
X90092413Y-99832142D01*
X90092413Y-99832142D02*
X90213365Y-99892618D01*
X90213365Y-99892618D02*
X90273842Y-99953095D01*
X90273842Y-99953095D02*
X90334318Y-100074047D01*
X90334318Y-100074047D02*
X90334318Y-100315952D01*
X90334318Y-100315952D02*
X90273842Y-100436904D01*
X90273842Y-100436904D02*
X90213365Y-100497380D01*
X90213365Y-100497380D02*
X90092413Y-100557857D01*
X90092413Y-100557857D02*
X89790032Y-100557857D01*
X89790032Y-100557857D02*
X89669080Y-100497380D01*
X89669080Y-100497380D02*
X89608603Y-100436904D01*
X89608603Y-100436904D02*
X89548127Y-100315952D01*
X89548127Y-100315952D02*
X89548127Y-100074047D01*
X89548127Y-100074047D02*
X89608603Y-99953095D01*
X89608603Y-99953095D02*
X89669080Y-99892618D01*
X89669080Y-99892618D02*
X89790032Y-99832142D01*
D11*
X135554819Y-77933333D02*
X135078628Y-77600000D01*
X135554819Y-77361905D02*
X134554819Y-77361905D01*
X134554819Y-77361905D02*
X134554819Y-77742857D01*
X134554819Y-77742857D02*
X134602438Y-77838095D01*
X134602438Y-77838095D02*
X134650057Y-77885714D01*
X134650057Y-77885714D02*
X134745295Y-77933333D01*
X134745295Y-77933333D02*
X134888152Y-77933333D01*
X134888152Y-77933333D02*
X134983390Y-77885714D01*
X134983390Y-77885714D02*
X135031009Y-77838095D01*
X135031009Y-77838095D02*
X135078628Y-77742857D01*
X135078628Y-77742857D02*
X135078628Y-77361905D01*
X135554819Y-78885714D02*
X135554819Y-78314286D01*
X135554819Y-78600000D02*
X134554819Y-78600000D01*
X134554819Y-78600000D02*
X134697676Y-78504762D01*
X134697676Y-78504762D02*
X134792914Y-78409524D01*
X134792914Y-78409524D02*
X134840533Y-78314286D01*
X135159580Y-70233333D02*
X135207200Y-70185714D01*
X135207200Y-70185714D02*
X135254819Y-70042857D01*
X135254819Y-70042857D02*
X135254819Y-69947619D01*
X135254819Y-69947619D02*
X135207200Y-69804762D01*
X135207200Y-69804762D02*
X135111961Y-69709524D01*
X135111961Y-69709524D02*
X135016723Y-69661905D01*
X135016723Y-69661905D02*
X134826247Y-69614286D01*
X134826247Y-69614286D02*
X134683390Y-69614286D01*
X134683390Y-69614286D02*
X134492914Y-69661905D01*
X134492914Y-69661905D02*
X134397676Y-69709524D01*
X134397676Y-69709524D02*
X134302438Y-69804762D01*
X134302438Y-69804762D02*
X134254819Y-69947619D01*
X134254819Y-69947619D02*
X134254819Y-70042857D01*
X134254819Y-70042857D02*
X134302438Y-70185714D01*
X134302438Y-70185714D02*
X134350057Y-70233333D01*
X135254819Y-71185714D02*
X135254819Y-70614286D01*
X135254819Y-70900000D02*
X134254819Y-70900000D01*
X134254819Y-70900000D02*
X134397676Y-70804762D01*
X134397676Y-70804762D02*
X134492914Y-70709524D01*
X134492914Y-70709524D02*
X134540533Y-70614286D01*
X131859580Y-78333333D02*
X131907200Y-78285714D01*
X131907200Y-78285714D02*
X131954819Y-78142857D01*
X131954819Y-78142857D02*
X131954819Y-78047619D01*
X131954819Y-78047619D02*
X131907200Y-77904762D01*
X131907200Y-77904762D02*
X131811961Y-77809524D01*
X131811961Y-77809524D02*
X131716723Y-77761905D01*
X131716723Y-77761905D02*
X131526247Y-77714286D01*
X131526247Y-77714286D02*
X131383390Y-77714286D01*
X131383390Y-77714286D02*
X131192914Y-77761905D01*
X131192914Y-77761905D02*
X131097676Y-77809524D01*
X131097676Y-77809524D02*
X131002438Y-77904762D01*
X131002438Y-77904762D02*
X130954819Y-78047619D01*
X130954819Y-78047619D02*
X130954819Y-78142857D01*
X130954819Y-78142857D02*
X131002438Y-78285714D01*
X131002438Y-78285714D02*
X131050057Y-78333333D01*
X130954819Y-78666667D02*
X130954819Y-79285714D01*
X130954819Y-79285714D02*
X131335771Y-78952381D01*
X131335771Y-78952381D02*
X131335771Y-79095238D01*
X131335771Y-79095238D02*
X131383390Y-79190476D01*
X131383390Y-79190476D02*
X131431009Y-79238095D01*
X131431009Y-79238095D02*
X131526247Y-79285714D01*
X131526247Y-79285714D02*
X131764342Y-79285714D01*
X131764342Y-79285714D02*
X131859580Y-79238095D01*
X131859580Y-79238095D02*
X131907200Y-79190476D01*
X131907200Y-79190476D02*
X131954819Y-79095238D01*
X131954819Y-79095238D02*
X131954819Y-78809524D01*
X131954819Y-78809524D02*
X131907200Y-78714286D01*
X131907200Y-78714286D02*
X131859580Y-78666667D01*
G04 #@! TO.C,D5*
D12*
X93260000Y-103900000D02*
X93260000Y-102700000D01*
X93660000Y-104400000D02*
X93660000Y-104400000D01*
X93760000Y-104400000D02*
X93760000Y-104400000D01*
X94060000Y-103900000D02*
X94060000Y-102700000D01*
X93660000Y-104400000D02*
G75*
G02*
X93760000Y-104400000I50000J0D01*
G01*
X93760000Y-104400000D02*
G75*
G02*
X93660000Y-104400000I-50000J0D01*
G01*
G04 #@! TO.C,C2*
D13*
X129800000Y-71700000D02*
X129800000Y-73300000D01*
X131200000Y-73300000D02*
X131200000Y-71700000D01*
G04 #@! TO.C,D7*
D12*
X87560000Y-104060000D02*
X87560000Y-102860000D01*
X87960000Y-104560000D02*
X87960000Y-104560000D01*
X88060000Y-104560000D02*
X88060000Y-104560000D01*
X88360000Y-104060000D02*
X88360000Y-102860000D01*
X87960000Y-104560000D02*
G75*
G02*
X88060000Y-104560000I50000J0D01*
G01*
X88060000Y-104560000D02*
G75*
G02*
X87960000Y-104560000I-50000J0D01*
G01*
G04 #@! TO.C,D6*
X90460000Y-103900000D02*
X90460000Y-102700000D01*
X90860000Y-104400000D02*
X90860000Y-104400000D01*
X90960000Y-104400000D02*
X90960000Y-104400000D01*
X91260000Y-103900000D02*
X91260000Y-102700000D01*
X90860000Y-104400000D02*
G75*
G02*
X90960000Y-104400000I50000J0D01*
G01*
X90960000Y-104400000D02*
G75*
G02*
X90860000Y-104400000I-50000J0D01*
G01*
G04 #@! TO.C,R1*
D13*
X132800000Y-74950000D02*
X132800000Y-76550000D01*
X134200000Y-76550000D02*
X134200000Y-74950000D01*
G04 #@! TO.C,C1*
X132800000Y-71700000D02*
X132800000Y-73300000D01*
X134200000Y-73300000D02*
X134200000Y-71700000D01*
G04 #@! TO.C,C3*
X129800000Y-75250000D02*
X129800000Y-76850000D01*
X131200000Y-76850000D02*
X131200000Y-75250000D01*
G04 #@! TD*
M02*
