G04 #@! TF.GenerationSoftware,KiCad,Pcbnew,10.0.3*
G04 #@! TF.CreationDate,2026-06-25T13:09:48+05:30*
G04 #@! TF.ProjectId,ESP32_DHT,45535033-325f-4444-9854-2e6b69636164,rev?*
G04 #@! TF.SameCoordinates,Original*
G04 #@! TF.FileFunction,Legend,Top*
G04 #@! TF.FilePolarity,Positive*
%FSLAX46Y46*%
G04 Gerber Fmt 4.6, Leading zero omitted, Abs format (unit mm)*
G04 Created by KiCad (PCBNEW 10.0.3) date 2026-06-25 13:09:48*
%MOMM*%
%LPD*%
G01*
G04 APERTURE LIST*
%ADD10C,0.150000*%
%ADD11C,0.254000*%
%ADD12C,0.120000*%
%ADD13C,0.200000*%
%ADD14C,0.100000*%
%ADD15C,0.250000*%
G04 APERTURE END LIST*
D10*
X84752380Y-108304819D02*
X84419047Y-107828628D01*
X84180952Y-108304819D02*
X84180952Y-107304819D01*
X84180952Y-107304819D02*
X84561904Y-107304819D01*
X84561904Y-107304819D02*
X84657142Y-107352438D01*
X84657142Y-107352438D02*
X84704761Y-107400057D01*
X84704761Y-107400057D02*
X84752380Y-107495295D01*
X84752380Y-107495295D02*
X84752380Y-107638152D01*
X84752380Y-107638152D02*
X84704761Y-107733390D01*
X84704761Y-107733390D02*
X84657142Y-107781009D01*
X84657142Y-107781009D02*
X84561904Y-107828628D01*
X84561904Y-107828628D02*
X84180952Y-107828628D01*
X85180952Y-107781009D02*
X85514285Y-107781009D01*
X85657142Y-108304819D02*
X85180952Y-108304819D01*
X85180952Y-108304819D02*
X85180952Y-107304819D01*
X85180952Y-107304819D02*
X85657142Y-107304819D01*
X86419047Y-107781009D02*
X86085714Y-107781009D01*
X86085714Y-108304819D02*
X86085714Y-107304819D01*
X86085714Y-107304819D02*
X86561904Y-107304819D01*
X87371428Y-107638152D02*
X87371428Y-108304819D01*
X87133333Y-107257200D02*
X86895238Y-107971485D01*
X86895238Y-107971485D02*
X87514285Y-107971485D01*
X184952380Y-107904819D02*
X184619047Y-107428628D01*
X184380952Y-107904819D02*
X184380952Y-106904819D01*
X184380952Y-106904819D02*
X184761904Y-106904819D01*
X184761904Y-106904819D02*
X184857142Y-106952438D01*
X184857142Y-106952438D02*
X184904761Y-107000057D01*
X184904761Y-107000057D02*
X184952380Y-107095295D01*
X184952380Y-107095295D02*
X184952380Y-107238152D01*
X184952380Y-107238152D02*
X184904761Y-107333390D01*
X184904761Y-107333390D02*
X184857142Y-107381009D01*
X184857142Y-107381009D02*
X184761904Y-107428628D01*
X184761904Y-107428628D02*
X184380952Y-107428628D01*
X185380952Y-107381009D02*
X185714285Y-107381009D01*
X185857142Y-107904819D02*
X185380952Y-107904819D01*
X185380952Y-107904819D02*
X185380952Y-106904819D01*
X185380952Y-106904819D02*
X185857142Y-106904819D01*
X186619047Y-107381009D02*
X186285714Y-107381009D01*
X186285714Y-107904819D02*
X186285714Y-106904819D01*
X186285714Y-106904819D02*
X186761904Y-106904819D01*
X187047619Y-106904819D02*
X187666666Y-106904819D01*
X187666666Y-106904819D02*
X187333333Y-107285771D01*
X187333333Y-107285771D02*
X187476190Y-107285771D01*
X187476190Y-107285771D02*
X187571428Y-107333390D01*
X187571428Y-107333390D02*
X187619047Y-107381009D01*
X187619047Y-107381009D02*
X187666666Y-107476247D01*
X187666666Y-107476247D02*
X187666666Y-107714342D01*
X187666666Y-107714342D02*
X187619047Y-107809580D01*
X187619047Y-107809580D02*
X187571428Y-107857200D01*
X187571428Y-107857200D02*
X187476190Y-107904819D01*
X187476190Y-107904819D02*
X187190476Y-107904819D01*
X187190476Y-107904819D02*
X187095238Y-107857200D01*
X187095238Y-107857200D02*
X187047619Y-107809580D01*
X183452380Y-64404819D02*
X183119047Y-63928628D01*
X182880952Y-64404819D02*
X182880952Y-63404819D01*
X182880952Y-63404819D02*
X183261904Y-63404819D01*
X183261904Y-63404819D02*
X183357142Y-63452438D01*
X183357142Y-63452438D02*
X183404761Y-63500057D01*
X183404761Y-63500057D02*
X183452380Y-63595295D01*
X183452380Y-63595295D02*
X183452380Y-63738152D01*
X183452380Y-63738152D02*
X183404761Y-63833390D01*
X183404761Y-63833390D02*
X183357142Y-63881009D01*
X183357142Y-63881009D02*
X183261904Y-63928628D01*
X183261904Y-63928628D02*
X182880952Y-63928628D01*
X183880952Y-63881009D02*
X184214285Y-63881009D01*
X184357142Y-64404819D02*
X183880952Y-64404819D01*
X183880952Y-64404819D02*
X183880952Y-63404819D01*
X183880952Y-63404819D02*
X184357142Y-63404819D01*
X185119047Y-63881009D02*
X184785714Y-63881009D01*
X184785714Y-64404819D02*
X184785714Y-63404819D01*
X184785714Y-63404819D02*
X185261904Y-63404819D01*
X185595238Y-63500057D02*
X185642857Y-63452438D01*
X185642857Y-63452438D02*
X185738095Y-63404819D01*
X185738095Y-63404819D02*
X185976190Y-63404819D01*
X185976190Y-63404819D02*
X186071428Y-63452438D01*
X186071428Y-63452438D02*
X186119047Y-63500057D01*
X186119047Y-63500057D02*
X186166666Y-63595295D01*
X186166666Y-63595295D02*
X186166666Y-63690533D01*
X186166666Y-63690533D02*
X186119047Y-63833390D01*
X186119047Y-63833390D02*
X185547619Y-64404819D01*
X185547619Y-64404819D02*
X186166666Y-64404819D01*
X85152380Y-62804819D02*
X84819047Y-62328628D01*
X84580952Y-62804819D02*
X84580952Y-61804819D01*
X84580952Y-61804819D02*
X84961904Y-61804819D01*
X84961904Y-61804819D02*
X85057142Y-61852438D01*
X85057142Y-61852438D02*
X85104761Y-61900057D01*
X85104761Y-61900057D02*
X85152380Y-61995295D01*
X85152380Y-61995295D02*
X85152380Y-62138152D01*
X85152380Y-62138152D02*
X85104761Y-62233390D01*
X85104761Y-62233390D02*
X85057142Y-62281009D01*
X85057142Y-62281009D02*
X84961904Y-62328628D01*
X84961904Y-62328628D02*
X84580952Y-62328628D01*
X85580952Y-62281009D02*
X85914285Y-62281009D01*
X86057142Y-62804819D02*
X85580952Y-62804819D01*
X85580952Y-62804819D02*
X85580952Y-61804819D01*
X85580952Y-61804819D02*
X86057142Y-61804819D01*
X86819047Y-62281009D02*
X86485714Y-62281009D01*
X86485714Y-62804819D02*
X86485714Y-61804819D01*
X86485714Y-61804819D02*
X86961904Y-61804819D01*
X87866666Y-62804819D02*
X87295238Y-62804819D01*
X87580952Y-62804819D02*
X87580952Y-61804819D01*
X87580952Y-61804819D02*
X87485714Y-61947676D01*
X87485714Y-61947676D02*
X87390476Y-62042914D01*
X87390476Y-62042914D02*
X87295238Y-62090533D01*
X130133333Y-104259580D02*
X130085714Y-104307200D01*
X130085714Y-104307200D02*
X129942857Y-104354819D01*
X129942857Y-104354819D02*
X129847619Y-104354819D01*
X129847619Y-104354819D02*
X129704762Y-104307200D01*
X129704762Y-104307200D02*
X129609524Y-104211961D01*
X129609524Y-104211961D02*
X129561905Y-104116723D01*
X129561905Y-104116723D02*
X129514286Y-103926247D01*
X129514286Y-103926247D02*
X129514286Y-103783390D01*
X129514286Y-103783390D02*
X129561905Y-103592914D01*
X129561905Y-103592914D02*
X129609524Y-103497676D01*
X129609524Y-103497676D02*
X129704762Y-103402438D01*
X129704762Y-103402438D02*
X129847619Y-103354819D01*
X129847619Y-103354819D02*
X129942857Y-103354819D01*
X129942857Y-103354819D02*
X130085714Y-103402438D01*
X130085714Y-103402438D02*
X130133333Y-103450057D01*
X130609524Y-104354819D02*
X130800000Y-104354819D01*
X130800000Y-104354819D02*
X130895238Y-104307200D01*
X130895238Y-104307200D02*
X130942857Y-104259580D01*
X130942857Y-104259580D02*
X131038095Y-104116723D01*
X131038095Y-104116723D02*
X131085714Y-103926247D01*
X131085714Y-103926247D02*
X131085714Y-103545295D01*
X131085714Y-103545295D02*
X131038095Y-103450057D01*
X131038095Y-103450057D02*
X130990476Y-103402438D01*
X130990476Y-103402438D02*
X130895238Y-103354819D01*
X130895238Y-103354819D02*
X130704762Y-103354819D01*
X130704762Y-103354819D02*
X130609524Y-103402438D01*
X130609524Y-103402438D02*
X130561905Y-103450057D01*
X130561905Y-103450057D02*
X130514286Y-103545295D01*
X130514286Y-103545295D02*
X130514286Y-103783390D01*
X130514286Y-103783390D02*
X130561905Y-103878628D01*
X130561905Y-103878628D02*
X130609524Y-103926247D01*
X130609524Y-103926247D02*
X130704762Y-103973866D01*
X130704762Y-103973866D02*
X130895238Y-103973866D01*
X130895238Y-103973866D02*
X130990476Y-103926247D01*
X130990476Y-103926247D02*
X131038095Y-103878628D01*
X131038095Y-103878628D02*
X131085714Y-103783390D01*
D11*
X120379047Y-97795270D02*
X120258095Y-97734794D01*
X120258095Y-97734794D02*
X120137142Y-97613842D01*
X120137142Y-97613842D02*
X119955714Y-97432413D01*
X119955714Y-97432413D02*
X119834761Y-97371937D01*
X119834761Y-97371937D02*
X119713809Y-97371937D01*
X119774285Y-97674318D02*
X119653333Y-97613842D01*
X119653333Y-97613842D02*
X119532380Y-97492889D01*
X119532380Y-97492889D02*
X119471904Y-97250984D01*
X119471904Y-97250984D02*
X119471904Y-96827651D01*
X119471904Y-96827651D02*
X119532380Y-96585746D01*
X119532380Y-96585746D02*
X119653333Y-96464794D01*
X119653333Y-96464794D02*
X119774285Y-96404318D01*
X119774285Y-96404318D02*
X120016190Y-96404318D01*
X120016190Y-96404318D02*
X120137142Y-96464794D01*
X120137142Y-96464794D02*
X120258095Y-96585746D01*
X120258095Y-96585746D02*
X120318571Y-96827651D01*
X120318571Y-96827651D02*
X120318571Y-97250984D01*
X120318571Y-97250984D02*
X120258095Y-97492889D01*
X120258095Y-97492889D02*
X120137142Y-97613842D01*
X120137142Y-97613842D02*
X120016190Y-97674318D01*
X120016190Y-97674318D02*
X119774285Y-97674318D01*
X120802380Y-96525270D02*
X120862856Y-96464794D01*
X120862856Y-96464794D02*
X120983809Y-96404318D01*
X120983809Y-96404318D02*
X121286190Y-96404318D01*
X121286190Y-96404318D02*
X121407142Y-96464794D01*
X121407142Y-96464794D02*
X121467618Y-96525270D01*
X121467618Y-96525270D02*
X121528095Y-96646222D01*
X121528095Y-96646222D02*
X121528095Y-96767175D01*
X121528095Y-96767175D02*
X121467618Y-96948603D01*
X121467618Y-96948603D02*
X120741904Y-97674318D01*
X120741904Y-97674318D02*
X121528095Y-97674318D01*
D10*
X88316666Y-109054819D02*
X88316666Y-109769104D01*
X88316666Y-109769104D02*
X88269047Y-109911961D01*
X88269047Y-109911961D02*
X88173809Y-110007200D01*
X88173809Y-110007200D02*
X88030952Y-110054819D01*
X88030952Y-110054819D02*
X87935714Y-110054819D01*
X89316666Y-110054819D02*
X88745238Y-110054819D01*
X89030952Y-110054819D02*
X89030952Y-109054819D01*
X89030952Y-109054819D02*
X88935714Y-109197676D01*
X88935714Y-109197676D02*
X88840476Y-109292914D01*
X88840476Y-109292914D02*
X88745238Y-109340533D01*
X101333333Y-72054819D02*
X101000000Y-71578628D01*
X100761905Y-72054819D02*
X100761905Y-71054819D01*
X100761905Y-71054819D02*
X101142857Y-71054819D01*
X101142857Y-71054819D02*
X101238095Y-71102438D01*
X101238095Y-71102438D02*
X101285714Y-71150057D01*
X101285714Y-71150057D02*
X101333333Y-71245295D01*
X101333333Y-71245295D02*
X101333333Y-71388152D01*
X101333333Y-71388152D02*
X101285714Y-71483390D01*
X101285714Y-71483390D02*
X101238095Y-71531009D01*
X101238095Y-71531009D02*
X101142857Y-71578628D01*
X101142857Y-71578628D02*
X100761905Y-71578628D01*
X101714286Y-71150057D02*
X101761905Y-71102438D01*
X101761905Y-71102438D02*
X101857143Y-71054819D01*
X101857143Y-71054819D02*
X102095238Y-71054819D01*
X102095238Y-71054819D02*
X102190476Y-71102438D01*
X102190476Y-71102438D02*
X102238095Y-71150057D01*
X102238095Y-71150057D02*
X102285714Y-71245295D01*
X102285714Y-71245295D02*
X102285714Y-71340533D01*
X102285714Y-71340533D02*
X102238095Y-71483390D01*
X102238095Y-71483390D02*
X101666667Y-72054819D01*
X101666667Y-72054819D02*
X102285714Y-72054819D01*
X125254819Y-92066666D02*
X124778628Y-92399999D01*
X125254819Y-92638094D02*
X124254819Y-92638094D01*
X124254819Y-92638094D02*
X124254819Y-92257142D01*
X124254819Y-92257142D02*
X124302438Y-92161904D01*
X124302438Y-92161904D02*
X124350057Y-92114285D01*
X124350057Y-92114285D02*
X124445295Y-92066666D01*
X124445295Y-92066666D02*
X124588152Y-92066666D01*
X124588152Y-92066666D02*
X124683390Y-92114285D01*
X124683390Y-92114285D02*
X124731009Y-92161904D01*
X124731009Y-92161904D02*
X124778628Y-92257142D01*
X124778628Y-92257142D02*
X124778628Y-92638094D01*
X124254819Y-91733332D02*
X124254819Y-91066666D01*
X124254819Y-91066666D02*
X125254819Y-91495237D01*
D11*
X145260237Y-74974318D02*
X145260237Y-73704318D01*
X146590714Y-74853365D02*
X146530238Y-74913842D01*
X146530238Y-74913842D02*
X146348809Y-74974318D01*
X146348809Y-74974318D02*
X146227857Y-74974318D01*
X146227857Y-74974318D02*
X146046428Y-74913842D01*
X146046428Y-74913842D02*
X145925476Y-74792889D01*
X145925476Y-74792889D02*
X145864999Y-74671937D01*
X145864999Y-74671937D02*
X145804523Y-74430032D01*
X145804523Y-74430032D02*
X145804523Y-74248603D01*
X145804523Y-74248603D02*
X145864999Y-74006699D01*
X145864999Y-74006699D02*
X145925476Y-73885746D01*
X145925476Y-73885746D02*
X146046428Y-73764794D01*
X146046428Y-73764794D02*
X146227857Y-73704318D01*
X146227857Y-73704318D02*
X146348809Y-73704318D01*
X146348809Y-73704318D02*
X146530238Y-73764794D01*
X146530238Y-73764794D02*
X146590714Y-73825270D01*
X147014047Y-73704318D02*
X147800238Y-73704318D01*
X147800238Y-73704318D02*
X147376904Y-74188127D01*
X147376904Y-74188127D02*
X147558333Y-74188127D01*
X147558333Y-74188127D02*
X147679285Y-74248603D01*
X147679285Y-74248603D02*
X147739761Y-74309080D01*
X147739761Y-74309080D02*
X147800238Y-74430032D01*
X147800238Y-74430032D02*
X147800238Y-74732413D01*
X147800238Y-74732413D02*
X147739761Y-74853365D01*
X147739761Y-74853365D02*
X147679285Y-74913842D01*
X147679285Y-74913842D02*
X147558333Y-74974318D01*
X147558333Y-74974318D02*
X147195476Y-74974318D01*
X147195476Y-74974318D02*
X147074523Y-74913842D01*
X147074523Y-74913842D02*
X147014047Y-74853365D01*
D10*
X99233333Y-86759580D02*
X99185714Y-86807200D01*
X99185714Y-86807200D02*
X99042857Y-86854819D01*
X99042857Y-86854819D02*
X98947619Y-86854819D01*
X98947619Y-86854819D02*
X98804762Y-86807200D01*
X98804762Y-86807200D02*
X98709524Y-86711961D01*
X98709524Y-86711961D02*
X98661905Y-86616723D01*
X98661905Y-86616723D02*
X98614286Y-86426247D01*
X98614286Y-86426247D02*
X98614286Y-86283390D01*
X98614286Y-86283390D02*
X98661905Y-86092914D01*
X98661905Y-86092914D02*
X98709524Y-85997676D01*
X98709524Y-85997676D02*
X98804762Y-85902438D01*
X98804762Y-85902438D02*
X98947619Y-85854819D01*
X98947619Y-85854819D02*
X99042857Y-85854819D01*
X99042857Y-85854819D02*
X99185714Y-85902438D01*
X99185714Y-85902438D02*
X99233333Y-85950057D01*
X100090476Y-85854819D02*
X99900000Y-85854819D01*
X99900000Y-85854819D02*
X99804762Y-85902438D01*
X99804762Y-85902438D02*
X99757143Y-85950057D01*
X99757143Y-85950057D02*
X99661905Y-86092914D01*
X99661905Y-86092914D02*
X99614286Y-86283390D01*
X99614286Y-86283390D02*
X99614286Y-86664342D01*
X99614286Y-86664342D02*
X99661905Y-86759580D01*
X99661905Y-86759580D02*
X99709524Y-86807200D01*
X99709524Y-86807200D02*
X99804762Y-86854819D01*
X99804762Y-86854819D02*
X99995238Y-86854819D01*
X99995238Y-86854819D02*
X100090476Y-86807200D01*
X100090476Y-86807200D02*
X100138095Y-86759580D01*
X100138095Y-86759580D02*
X100185714Y-86664342D01*
X100185714Y-86664342D02*
X100185714Y-86426247D01*
X100185714Y-86426247D02*
X100138095Y-86331009D01*
X100138095Y-86331009D02*
X100090476Y-86283390D01*
X100090476Y-86283390D02*
X99995238Y-86235771D01*
X99995238Y-86235771D02*
X99804762Y-86235771D01*
X99804762Y-86235771D02*
X99709524Y-86283390D01*
X99709524Y-86283390D02*
X99661905Y-86331009D01*
X99661905Y-86331009D02*
X99614286Y-86426247D01*
X109588095Y-68454819D02*
X109588095Y-69264342D01*
X109588095Y-69264342D02*
X109635714Y-69359580D01*
X109635714Y-69359580D02*
X109683333Y-69407200D01*
X109683333Y-69407200D02*
X109778571Y-69454819D01*
X109778571Y-69454819D02*
X109969047Y-69454819D01*
X109969047Y-69454819D02*
X110064285Y-69407200D01*
X110064285Y-69407200D02*
X110111904Y-69359580D01*
X110111904Y-69359580D02*
X110159523Y-69264342D01*
X110159523Y-69264342D02*
X110159523Y-68454819D01*
X111159523Y-69454819D02*
X110588095Y-69454819D01*
X110873809Y-69454819D02*
X110873809Y-68454819D01*
X110873809Y-68454819D02*
X110778571Y-68597676D01*
X110778571Y-68597676D02*
X110683333Y-68692914D01*
X110683333Y-68692914D02*
X110588095Y-68740533D01*
D11*
X112060237Y-89874318D02*
X112060237Y-88604318D01*
X113390714Y-89753365D02*
X113330238Y-89813842D01*
X113330238Y-89813842D02*
X113148809Y-89874318D01*
X113148809Y-89874318D02*
X113027857Y-89874318D01*
X113027857Y-89874318D02*
X112846428Y-89813842D01*
X112846428Y-89813842D02*
X112725476Y-89692889D01*
X112725476Y-89692889D02*
X112664999Y-89571937D01*
X112664999Y-89571937D02*
X112604523Y-89330032D01*
X112604523Y-89330032D02*
X112604523Y-89148603D01*
X112604523Y-89148603D02*
X112664999Y-88906699D01*
X112664999Y-88906699D02*
X112725476Y-88785746D01*
X112725476Y-88785746D02*
X112846428Y-88664794D01*
X112846428Y-88664794D02*
X113027857Y-88604318D01*
X113027857Y-88604318D02*
X113148809Y-88604318D01*
X113148809Y-88604318D02*
X113330238Y-88664794D01*
X113330238Y-88664794D02*
X113390714Y-88725270D01*
X114600238Y-89874318D02*
X113874523Y-89874318D01*
X114237380Y-89874318D02*
X114237380Y-88604318D01*
X114237380Y-88604318D02*
X114116428Y-88785746D01*
X114116428Y-88785746D02*
X113995476Y-88906699D01*
X113995476Y-88906699D02*
X113874523Y-88967175D01*
X122779047Y-87895270D02*
X122658095Y-87834794D01*
X122658095Y-87834794D02*
X122537142Y-87713842D01*
X122537142Y-87713842D02*
X122355714Y-87532413D01*
X122355714Y-87532413D02*
X122234761Y-87471937D01*
X122234761Y-87471937D02*
X122113809Y-87471937D01*
X122174285Y-87774318D02*
X122053333Y-87713842D01*
X122053333Y-87713842D02*
X121932380Y-87592889D01*
X121932380Y-87592889D02*
X121871904Y-87350984D01*
X121871904Y-87350984D02*
X121871904Y-86927651D01*
X121871904Y-86927651D02*
X121932380Y-86685746D01*
X121932380Y-86685746D02*
X122053333Y-86564794D01*
X122053333Y-86564794D02*
X122174285Y-86504318D01*
X122174285Y-86504318D02*
X122416190Y-86504318D01*
X122416190Y-86504318D02*
X122537142Y-86564794D01*
X122537142Y-86564794D02*
X122658095Y-86685746D01*
X122658095Y-86685746D02*
X122718571Y-86927651D01*
X122718571Y-86927651D02*
X122718571Y-87350984D01*
X122718571Y-87350984D02*
X122658095Y-87592889D01*
X122658095Y-87592889D02*
X122537142Y-87713842D01*
X122537142Y-87713842D02*
X122416190Y-87774318D01*
X122416190Y-87774318D02*
X122174285Y-87774318D01*
X123928095Y-87774318D02*
X123202380Y-87774318D01*
X123565237Y-87774318D02*
X123565237Y-86504318D01*
X123565237Y-86504318D02*
X123444285Y-86685746D01*
X123444285Y-86685746D02*
X123323333Y-86806699D01*
X123323333Y-86806699D02*
X123202380Y-86867175D01*
D10*
X114916667Y-106407200D02*
X115059524Y-106454819D01*
X115059524Y-106454819D02*
X115297619Y-106454819D01*
X115297619Y-106454819D02*
X115392857Y-106407200D01*
X115392857Y-106407200D02*
X115440476Y-106359580D01*
X115440476Y-106359580D02*
X115488095Y-106264342D01*
X115488095Y-106264342D02*
X115488095Y-106169104D01*
X115488095Y-106169104D02*
X115440476Y-106073866D01*
X115440476Y-106073866D02*
X115392857Y-106026247D01*
X115392857Y-106026247D02*
X115297619Y-105978628D01*
X115297619Y-105978628D02*
X115107143Y-105931009D01*
X115107143Y-105931009D02*
X115011905Y-105883390D01*
X115011905Y-105883390D02*
X114964286Y-105835771D01*
X114964286Y-105835771D02*
X114916667Y-105740533D01*
X114916667Y-105740533D02*
X114916667Y-105645295D01*
X114916667Y-105645295D02*
X114964286Y-105550057D01*
X114964286Y-105550057D02*
X115011905Y-105502438D01*
X115011905Y-105502438D02*
X115107143Y-105454819D01*
X115107143Y-105454819D02*
X115345238Y-105454819D01*
X115345238Y-105454819D02*
X115488095Y-105502438D01*
X115821429Y-105454819D02*
X116059524Y-106454819D01*
X116059524Y-106454819D02*
X116250000Y-105740533D01*
X116250000Y-105740533D02*
X116440476Y-106454819D01*
X116440476Y-106454819D02*
X116678572Y-105454819D01*
X117583333Y-106454819D02*
X117011905Y-106454819D01*
X117297619Y-106454819D02*
X117297619Y-105454819D01*
X117297619Y-105454819D02*
X117202381Y-105597676D01*
X117202381Y-105597676D02*
X117107143Y-105692914D01*
X117107143Y-105692914D02*
X117011905Y-105740533D01*
X128166667Y-106657200D02*
X128309524Y-106704819D01*
X128309524Y-106704819D02*
X128547619Y-106704819D01*
X128547619Y-106704819D02*
X128642857Y-106657200D01*
X128642857Y-106657200D02*
X128690476Y-106609580D01*
X128690476Y-106609580D02*
X128738095Y-106514342D01*
X128738095Y-106514342D02*
X128738095Y-106419104D01*
X128738095Y-106419104D02*
X128690476Y-106323866D01*
X128690476Y-106323866D02*
X128642857Y-106276247D01*
X128642857Y-106276247D02*
X128547619Y-106228628D01*
X128547619Y-106228628D02*
X128357143Y-106181009D01*
X128357143Y-106181009D02*
X128261905Y-106133390D01*
X128261905Y-106133390D02*
X128214286Y-106085771D01*
X128214286Y-106085771D02*
X128166667Y-105990533D01*
X128166667Y-105990533D02*
X128166667Y-105895295D01*
X128166667Y-105895295D02*
X128214286Y-105800057D01*
X128214286Y-105800057D02*
X128261905Y-105752438D01*
X128261905Y-105752438D02*
X128357143Y-105704819D01*
X128357143Y-105704819D02*
X128595238Y-105704819D01*
X128595238Y-105704819D02*
X128738095Y-105752438D01*
X129071429Y-105704819D02*
X129309524Y-106704819D01*
X129309524Y-106704819D02*
X129500000Y-105990533D01*
X129500000Y-105990533D02*
X129690476Y-106704819D01*
X129690476Y-106704819D02*
X129928572Y-105704819D01*
X130261905Y-105800057D02*
X130309524Y-105752438D01*
X130309524Y-105752438D02*
X130404762Y-105704819D01*
X130404762Y-105704819D02*
X130642857Y-105704819D01*
X130642857Y-105704819D02*
X130738095Y-105752438D01*
X130738095Y-105752438D02*
X130785714Y-105800057D01*
X130785714Y-105800057D02*
X130833333Y-105895295D01*
X130833333Y-105895295D02*
X130833333Y-105990533D01*
X130833333Y-105990533D02*
X130785714Y-106133390D01*
X130785714Y-106133390D02*
X130214286Y-106704819D01*
X130214286Y-106704819D02*
X130833333Y-106704819D01*
X128994819Y-91766666D02*
X128518628Y-92099999D01*
X128994819Y-92338094D02*
X127994819Y-92338094D01*
X127994819Y-92338094D02*
X127994819Y-91957142D01*
X127994819Y-91957142D02*
X128042438Y-91861904D01*
X128042438Y-91861904D02*
X128090057Y-91814285D01*
X128090057Y-91814285D02*
X128185295Y-91766666D01*
X128185295Y-91766666D02*
X128328152Y-91766666D01*
X128328152Y-91766666D02*
X128423390Y-91814285D01*
X128423390Y-91814285D02*
X128471009Y-91861904D01*
X128471009Y-91861904D02*
X128518628Y-91957142D01*
X128518628Y-91957142D02*
X128518628Y-92338094D01*
X128423390Y-91195237D02*
X128375771Y-91290475D01*
X128375771Y-91290475D02*
X128328152Y-91338094D01*
X128328152Y-91338094D02*
X128232914Y-91385713D01*
X128232914Y-91385713D02*
X128185295Y-91385713D01*
X128185295Y-91385713D02*
X128090057Y-91338094D01*
X128090057Y-91338094D02*
X128042438Y-91290475D01*
X128042438Y-91290475D02*
X127994819Y-91195237D01*
X127994819Y-91195237D02*
X127994819Y-91004761D01*
X127994819Y-91004761D02*
X128042438Y-90909523D01*
X128042438Y-90909523D02*
X128090057Y-90861904D01*
X128090057Y-90861904D02*
X128185295Y-90814285D01*
X128185295Y-90814285D02*
X128232914Y-90814285D01*
X128232914Y-90814285D02*
X128328152Y-90861904D01*
X128328152Y-90861904D02*
X128375771Y-90909523D01*
X128375771Y-90909523D02*
X128423390Y-91004761D01*
X128423390Y-91004761D02*
X128423390Y-91195237D01*
X128423390Y-91195237D02*
X128471009Y-91290475D01*
X128471009Y-91290475D02*
X128518628Y-91338094D01*
X128518628Y-91338094D02*
X128613866Y-91385713D01*
X128613866Y-91385713D02*
X128804342Y-91385713D01*
X128804342Y-91385713D02*
X128899580Y-91338094D01*
X128899580Y-91338094D02*
X128947200Y-91290475D01*
X128947200Y-91290475D02*
X128994819Y-91195237D01*
X128994819Y-91195237D02*
X128994819Y-91004761D01*
X128994819Y-91004761D02*
X128947200Y-90909523D01*
X128947200Y-90909523D02*
X128899580Y-90861904D01*
X128899580Y-90861904D02*
X128804342Y-90814285D01*
X128804342Y-90814285D02*
X128613866Y-90814285D01*
X128613866Y-90814285D02*
X128518628Y-90861904D01*
X128518628Y-90861904D02*
X128471009Y-90909523D01*
X128471009Y-90909523D02*
X128423390Y-91004761D01*
X101761905Y-79554819D02*
X101761905Y-78554819D01*
X101761905Y-78554819D02*
X102000000Y-78554819D01*
X102000000Y-78554819D02*
X102142857Y-78602438D01*
X102142857Y-78602438D02*
X102238095Y-78697676D01*
X102238095Y-78697676D02*
X102285714Y-78792914D01*
X102285714Y-78792914D02*
X102333333Y-78983390D01*
X102333333Y-78983390D02*
X102333333Y-79126247D01*
X102333333Y-79126247D02*
X102285714Y-79316723D01*
X102285714Y-79316723D02*
X102238095Y-79411961D01*
X102238095Y-79411961D02*
X102142857Y-79507200D01*
X102142857Y-79507200D02*
X102000000Y-79554819D01*
X102000000Y-79554819D02*
X101761905Y-79554819D01*
X103285714Y-79554819D02*
X102714286Y-79554819D01*
X103000000Y-79554819D02*
X103000000Y-78554819D01*
X103000000Y-78554819D02*
X102904762Y-78697676D01*
X102904762Y-78697676D02*
X102809524Y-78792914D01*
X102809524Y-78792914D02*
X102714286Y-78840533D01*
X167583333Y-85954819D02*
X167250000Y-85478628D01*
X167011905Y-85954819D02*
X167011905Y-84954819D01*
X167011905Y-84954819D02*
X167392857Y-84954819D01*
X167392857Y-84954819D02*
X167488095Y-85002438D01*
X167488095Y-85002438D02*
X167535714Y-85050057D01*
X167535714Y-85050057D02*
X167583333Y-85145295D01*
X167583333Y-85145295D02*
X167583333Y-85288152D01*
X167583333Y-85288152D02*
X167535714Y-85383390D01*
X167535714Y-85383390D02*
X167488095Y-85431009D01*
X167488095Y-85431009D02*
X167392857Y-85478628D01*
X167392857Y-85478628D02*
X167011905Y-85478628D01*
X168059524Y-85954819D02*
X168250000Y-85954819D01*
X168250000Y-85954819D02*
X168345238Y-85907200D01*
X168345238Y-85907200D02*
X168392857Y-85859580D01*
X168392857Y-85859580D02*
X168488095Y-85716723D01*
X168488095Y-85716723D02*
X168535714Y-85526247D01*
X168535714Y-85526247D02*
X168535714Y-85145295D01*
X168535714Y-85145295D02*
X168488095Y-85050057D01*
X168488095Y-85050057D02*
X168440476Y-85002438D01*
X168440476Y-85002438D02*
X168345238Y-84954819D01*
X168345238Y-84954819D02*
X168154762Y-84954819D01*
X168154762Y-84954819D02*
X168059524Y-85002438D01*
X168059524Y-85002438D02*
X168011905Y-85050057D01*
X168011905Y-85050057D02*
X167964286Y-85145295D01*
X167964286Y-85145295D02*
X167964286Y-85383390D01*
X167964286Y-85383390D02*
X168011905Y-85478628D01*
X168011905Y-85478628D02*
X168059524Y-85526247D01*
X168059524Y-85526247D02*
X168154762Y-85573866D01*
X168154762Y-85573866D02*
X168345238Y-85573866D01*
X168345238Y-85573866D02*
X168440476Y-85526247D01*
X168440476Y-85526247D02*
X168488095Y-85478628D01*
X168488095Y-85478628D02*
X168535714Y-85383390D01*
X112054819Y-98566666D02*
X111578628Y-98899999D01*
X112054819Y-99138094D02*
X111054819Y-99138094D01*
X111054819Y-99138094D02*
X111054819Y-98757142D01*
X111054819Y-98757142D02*
X111102438Y-98661904D01*
X111102438Y-98661904D02*
X111150057Y-98614285D01*
X111150057Y-98614285D02*
X111245295Y-98566666D01*
X111245295Y-98566666D02*
X111388152Y-98566666D01*
X111388152Y-98566666D02*
X111483390Y-98614285D01*
X111483390Y-98614285D02*
X111531009Y-98661904D01*
X111531009Y-98661904D02*
X111578628Y-98757142D01*
X111578628Y-98757142D02*
X111578628Y-99138094D01*
X111054819Y-98233332D02*
X111054819Y-97614285D01*
X111054819Y-97614285D02*
X111435771Y-97947618D01*
X111435771Y-97947618D02*
X111435771Y-97804761D01*
X111435771Y-97804761D02*
X111483390Y-97709523D01*
X111483390Y-97709523D02*
X111531009Y-97661904D01*
X111531009Y-97661904D02*
X111626247Y-97614285D01*
X111626247Y-97614285D02*
X111864342Y-97614285D01*
X111864342Y-97614285D02*
X111959580Y-97661904D01*
X111959580Y-97661904D02*
X112007200Y-97709523D01*
X112007200Y-97709523D02*
X112054819Y-97804761D01*
X112054819Y-97804761D02*
X112054819Y-98090475D01*
X112054819Y-98090475D02*
X112007200Y-98185713D01*
X112007200Y-98185713D02*
X111959580Y-98233332D01*
X104233333Y-72059580D02*
X104185714Y-72107200D01*
X104185714Y-72107200D02*
X104042857Y-72154819D01*
X104042857Y-72154819D02*
X103947619Y-72154819D01*
X103947619Y-72154819D02*
X103804762Y-72107200D01*
X103804762Y-72107200D02*
X103709524Y-72011961D01*
X103709524Y-72011961D02*
X103661905Y-71916723D01*
X103661905Y-71916723D02*
X103614286Y-71726247D01*
X103614286Y-71726247D02*
X103614286Y-71583390D01*
X103614286Y-71583390D02*
X103661905Y-71392914D01*
X103661905Y-71392914D02*
X103709524Y-71297676D01*
X103709524Y-71297676D02*
X103804762Y-71202438D01*
X103804762Y-71202438D02*
X103947619Y-71154819D01*
X103947619Y-71154819D02*
X104042857Y-71154819D01*
X104042857Y-71154819D02*
X104185714Y-71202438D01*
X104185714Y-71202438D02*
X104233333Y-71250057D01*
X105090476Y-71488152D02*
X105090476Y-72154819D01*
X104852381Y-71107200D02*
X104614286Y-71821485D01*
X104614286Y-71821485D02*
X105233333Y-71821485D01*
X116333333Y-104609580D02*
X116285714Y-104657200D01*
X116285714Y-104657200D02*
X116142857Y-104704819D01*
X116142857Y-104704819D02*
X116047619Y-104704819D01*
X116047619Y-104704819D02*
X115904762Y-104657200D01*
X115904762Y-104657200D02*
X115809524Y-104561961D01*
X115809524Y-104561961D02*
X115761905Y-104466723D01*
X115761905Y-104466723D02*
X115714286Y-104276247D01*
X115714286Y-104276247D02*
X115714286Y-104133390D01*
X115714286Y-104133390D02*
X115761905Y-103942914D01*
X115761905Y-103942914D02*
X115809524Y-103847676D01*
X115809524Y-103847676D02*
X115904762Y-103752438D01*
X115904762Y-103752438D02*
X116047619Y-103704819D01*
X116047619Y-103704819D02*
X116142857Y-103704819D01*
X116142857Y-103704819D02*
X116285714Y-103752438D01*
X116285714Y-103752438D02*
X116333333Y-103800057D01*
X116904762Y-104133390D02*
X116809524Y-104085771D01*
X116809524Y-104085771D02*
X116761905Y-104038152D01*
X116761905Y-104038152D02*
X116714286Y-103942914D01*
X116714286Y-103942914D02*
X116714286Y-103895295D01*
X116714286Y-103895295D02*
X116761905Y-103800057D01*
X116761905Y-103800057D02*
X116809524Y-103752438D01*
X116809524Y-103752438D02*
X116904762Y-103704819D01*
X116904762Y-103704819D02*
X117095238Y-103704819D01*
X117095238Y-103704819D02*
X117190476Y-103752438D01*
X117190476Y-103752438D02*
X117238095Y-103800057D01*
X117238095Y-103800057D02*
X117285714Y-103895295D01*
X117285714Y-103895295D02*
X117285714Y-103942914D01*
X117285714Y-103942914D02*
X117238095Y-104038152D01*
X117238095Y-104038152D02*
X117190476Y-104085771D01*
X117190476Y-104085771D02*
X117095238Y-104133390D01*
X117095238Y-104133390D02*
X116904762Y-104133390D01*
X116904762Y-104133390D02*
X116809524Y-104181009D01*
X116809524Y-104181009D02*
X116761905Y-104228628D01*
X116761905Y-104228628D02*
X116714286Y-104323866D01*
X116714286Y-104323866D02*
X116714286Y-104514342D01*
X116714286Y-104514342D02*
X116761905Y-104609580D01*
X116761905Y-104609580D02*
X116809524Y-104657200D01*
X116809524Y-104657200D02*
X116904762Y-104704819D01*
X116904762Y-104704819D02*
X117095238Y-104704819D01*
X117095238Y-104704819D02*
X117190476Y-104657200D01*
X117190476Y-104657200D02*
X117238095Y-104609580D01*
X117238095Y-104609580D02*
X117285714Y-104514342D01*
X117285714Y-104514342D02*
X117285714Y-104323866D01*
X117285714Y-104323866D02*
X117238095Y-104228628D01*
X117238095Y-104228628D02*
X117190476Y-104181009D01*
X117190476Y-104181009D02*
X117095238Y-104133390D01*
X102633333Y-86959580D02*
X102585714Y-87007200D01*
X102585714Y-87007200D02*
X102442857Y-87054819D01*
X102442857Y-87054819D02*
X102347619Y-87054819D01*
X102347619Y-87054819D02*
X102204762Y-87007200D01*
X102204762Y-87007200D02*
X102109524Y-86911961D01*
X102109524Y-86911961D02*
X102061905Y-86816723D01*
X102061905Y-86816723D02*
X102014286Y-86626247D01*
X102014286Y-86626247D02*
X102014286Y-86483390D01*
X102014286Y-86483390D02*
X102061905Y-86292914D01*
X102061905Y-86292914D02*
X102109524Y-86197676D01*
X102109524Y-86197676D02*
X102204762Y-86102438D01*
X102204762Y-86102438D02*
X102347619Y-86054819D01*
X102347619Y-86054819D02*
X102442857Y-86054819D01*
X102442857Y-86054819D02*
X102585714Y-86102438D01*
X102585714Y-86102438D02*
X102633333Y-86150057D01*
X102966667Y-86054819D02*
X103633333Y-86054819D01*
X103633333Y-86054819D02*
X103204762Y-87054819D01*
X160354819Y-81642857D02*
X159878628Y-81976190D01*
X160354819Y-82214285D02*
X159354819Y-82214285D01*
X159354819Y-82214285D02*
X159354819Y-81833333D01*
X159354819Y-81833333D02*
X159402438Y-81738095D01*
X159402438Y-81738095D02*
X159450057Y-81690476D01*
X159450057Y-81690476D02*
X159545295Y-81642857D01*
X159545295Y-81642857D02*
X159688152Y-81642857D01*
X159688152Y-81642857D02*
X159783390Y-81690476D01*
X159783390Y-81690476D02*
X159831009Y-81738095D01*
X159831009Y-81738095D02*
X159878628Y-81833333D01*
X159878628Y-81833333D02*
X159878628Y-82214285D01*
X160354819Y-80690476D02*
X160354819Y-81261904D01*
X160354819Y-80976190D02*
X159354819Y-80976190D01*
X159354819Y-80976190D02*
X159497676Y-81071428D01*
X159497676Y-81071428D02*
X159592914Y-81166666D01*
X159592914Y-81166666D02*
X159640533Y-81261904D01*
X160354819Y-79738095D02*
X160354819Y-80309523D01*
X160354819Y-80023809D02*
X159354819Y-80023809D01*
X159354819Y-80023809D02*
X159497676Y-80119047D01*
X159497676Y-80119047D02*
X159592914Y-80214285D01*
X159592914Y-80214285D02*
X159640533Y-80309523D01*
X105654819Y-98516666D02*
X105178628Y-98849999D01*
X105654819Y-99088094D02*
X104654819Y-99088094D01*
X104654819Y-99088094D02*
X104654819Y-98707142D01*
X104654819Y-98707142D02*
X104702438Y-98611904D01*
X104702438Y-98611904D02*
X104750057Y-98564285D01*
X104750057Y-98564285D02*
X104845295Y-98516666D01*
X104845295Y-98516666D02*
X104988152Y-98516666D01*
X104988152Y-98516666D02*
X105083390Y-98564285D01*
X105083390Y-98564285D02*
X105131009Y-98611904D01*
X105131009Y-98611904D02*
X105178628Y-98707142D01*
X105178628Y-98707142D02*
X105178628Y-99088094D01*
X104988152Y-97659523D02*
X105654819Y-97659523D01*
X104607200Y-97897618D02*
X105321485Y-98135713D01*
X105321485Y-98135713D02*
X105321485Y-97516666D01*
X112254819Y-94866666D02*
X111778628Y-95199999D01*
X112254819Y-95438094D02*
X111254819Y-95438094D01*
X111254819Y-95438094D02*
X111254819Y-95057142D01*
X111254819Y-95057142D02*
X111302438Y-94961904D01*
X111302438Y-94961904D02*
X111350057Y-94914285D01*
X111350057Y-94914285D02*
X111445295Y-94866666D01*
X111445295Y-94866666D02*
X111588152Y-94866666D01*
X111588152Y-94866666D02*
X111683390Y-94914285D01*
X111683390Y-94914285D02*
X111731009Y-94961904D01*
X111731009Y-94961904D02*
X111778628Y-95057142D01*
X111778628Y-95057142D02*
X111778628Y-95438094D01*
X111254819Y-94009523D02*
X111254819Y-94199999D01*
X111254819Y-94199999D02*
X111302438Y-94295237D01*
X111302438Y-94295237D02*
X111350057Y-94342856D01*
X111350057Y-94342856D02*
X111492914Y-94438094D01*
X111492914Y-94438094D02*
X111683390Y-94485713D01*
X111683390Y-94485713D02*
X112064342Y-94485713D01*
X112064342Y-94485713D02*
X112159580Y-94438094D01*
X112159580Y-94438094D02*
X112207200Y-94390475D01*
X112207200Y-94390475D02*
X112254819Y-94295237D01*
X112254819Y-94295237D02*
X112254819Y-94104761D01*
X112254819Y-94104761D02*
X112207200Y-94009523D01*
X112207200Y-94009523D02*
X112159580Y-93961904D01*
X112159580Y-93961904D02*
X112064342Y-93914285D01*
X112064342Y-93914285D02*
X111826247Y-93914285D01*
X111826247Y-93914285D02*
X111731009Y-93961904D01*
X111731009Y-93961904D02*
X111683390Y-94009523D01*
X111683390Y-94009523D02*
X111635771Y-94104761D01*
X111635771Y-94104761D02*
X111635771Y-94295237D01*
X111635771Y-94295237D02*
X111683390Y-94390475D01*
X111683390Y-94390475D02*
X111731009Y-94438094D01*
X111731009Y-94438094D02*
X111826247Y-94485713D01*
X118183333Y-72659580D02*
X118135714Y-72707200D01*
X118135714Y-72707200D02*
X117992857Y-72754819D01*
X117992857Y-72754819D02*
X117897619Y-72754819D01*
X117897619Y-72754819D02*
X117754762Y-72707200D01*
X117754762Y-72707200D02*
X117659524Y-72611961D01*
X117659524Y-72611961D02*
X117611905Y-72516723D01*
X117611905Y-72516723D02*
X117564286Y-72326247D01*
X117564286Y-72326247D02*
X117564286Y-72183390D01*
X117564286Y-72183390D02*
X117611905Y-71992914D01*
X117611905Y-71992914D02*
X117659524Y-71897676D01*
X117659524Y-71897676D02*
X117754762Y-71802438D01*
X117754762Y-71802438D02*
X117897619Y-71754819D01*
X117897619Y-71754819D02*
X117992857Y-71754819D01*
X117992857Y-71754819D02*
X118135714Y-71802438D01*
X118135714Y-71802438D02*
X118183333Y-71850057D01*
X119088095Y-71754819D02*
X118611905Y-71754819D01*
X118611905Y-71754819D02*
X118564286Y-72231009D01*
X118564286Y-72231009D02*
X118611905Y-72183390D01*
X118611905Y-72183390D02*
X118707143Y-72135771D01*
X118707143Y-72135771D02*
X118945238Y-72135771D01*
X118945238Y-72135771D02*
X119040476Y-72183390D01*
X119040476Y-72183390D02*
X119088095Y-72231009D01*
X119088095Y-72231009D02*
X119135714Y-72326247D01*
X119135714Y-72326247D02*
X119135714Y-72564342D01*
X119135714Y-72564342D02*
X119088095Y-72659580D01*
X119088095Y-72659580D02*
X119040476Y-72707200D01*
X119040476Y-72707200D02*
X118945238Y-72754819D01*
X118945238Y-72754819D02*
X118707143Y-72754819D01*
X118707143Y-72754819D02*
X118611905Y-72707200D01*
X118611905Y-72707200D02*
X118564286Y-72659580D01*
X160454819Y-77592857D02*
X159978628Y-77926190D01*
X160454819Y-78164285D02*
X159454819Y-78164285D01*
X159454819Y-78164285D02*
X159454819Y-77783333D01*
X159454819Y-77783333D02*
X159502438Y-77688095D01*
X159502438Y-77688095D02*
X159550057Y-77640476D01*
X159550057Y-77640476D02*
X159645295Y-77592857D01*
X159645295Y-77592857D02*
X159788152Y-77592857D01*
X159788152Y-77592857D02*
X159883390Y-77640476D01*
X159883390Y-77640476D02*
X159931009Y-77688095D01*
X159931009Y-77688095D02*
X159978628Y-77783333D01*
X159978628Y-77783333D02*
X159978628Y-78164285D01*
X160454819Y-76640476D02*
X160454819Y-77211904D01*
X160454819Y-76926190D02*
X159454819Y-76926190D01*
X159454819Y-76926190D02*
X159597676Y-77021428D01*
X159597676Y-77021428D02*
X159692914Y-77116666D01*
X159692914Y-77116666D02*
X159740533Y-77211904D01*
X159454819Y-76021428D02*
X159454819Y-75926190D01*
X159454819Y-75926190D02*
X159502438Y-75830952D01*
X159502438Y-75830952D02*
X159550057Y-75783333D01*
X159550057Y-75783333D02*
X159645295Y-75735714D01*
X159645295Y-75735714D02*
X159835771Y-75688095D01*
X159835771Y-75688095D02*
X160073866Y-75688095D01*
X160073866Y-75688095D02*
X160264342Y-75735714D01*
X160264342Y-75735714D02*
X160359580Y-75783333D01*
X160359580Y-75783333D02*
X160407200Y-75830952D01*
X160407200Y-75830952D02*
X160454819Y-75926190D01*
X160454819Y-75926190D02*
X160454819Y-76021428D01*
X160454819Y-76021428D02*
X160407200Y-76116666D01*
X160407200Y-76116666D02*
X160359580Y-76164285D01*
X160359580Y-76164285D02*
X160264342Y-76211904D01*
X160264342Y-76211904D02*
X160073866Y-76259523D01*
X160073866Y-76259523D02*
X159835771Y-76259523D01*
X159835771Y-76259523D02*
X159645295Y-76211904D01*
X159645295Y-76211904D02*
X159550057Y-76164285D01*
X159550057Y-76164285D02*
X159502438Y-76116666D01*
X159502438Y-76116666D02*
X159454819Y-76021428D01*
D11*
X177760237Y-89574318D02*
X177760237Y-88304318D01*
X179090714Y-89453365D02*
X179030238Y-89513842D01*
X179030238Y-89513842D02*
X178848809Y-89574318D01*
X178848809Y-89574318D02*
X178727857Y-89574318D01*
X178727857Y-89574318D02*
X178546428Y-89513842D01*
X178546428Y-89513842D02*
X178425476Y-89392889D01*
X178425476Y-89392889D02*
X178364999Y-89271937D01*
X178364999Y-89271937D02*
X178304523Y-89030032D01*
X178304523Y-89030032D02*
X178304523Y-88848603D01*
X178304523Y-88848603D02*
X178364999Y-88606699D01*
X178364999Y-88606699D02*
X178425476Y-88485746D01*
X178425476Y-88485746D02*
X178546428Y-88364794D01*
X178546428Y-88364794D02*
X178727857Y-88304318D01*
X178727857Y-88304318D02*
X178848809Y-88304318D01*
X178848809Y-88304318D02*
X179030238Y-88364794D01*
X179030238Y-88364794D02*
X179090714Y-88425270D01*
X179574523Y-88425270D02*
X179634999Y-88364794D01*
X179634999Y-88364794D02*
X179755952Y-88304318D01*
X179755952Y-88304318D02*
X180058333Y-88304318D01*
X180058333Y-88304318D02*
X180179285Y-88364794D01*
X180179285Y-88364794D02*
X180239761Y-88425270D01*
X180239761Y-88425270D02*
X180300238Y-88546222D01*
X180300238Y-88546222D02*
X180300238Y-88667175D01*
X180300238Y-88667175D02*
X180239761Y-88848603D01*
X180239761Y-88848603D02*
X179514047Y-89574318D01*
X179514047Y-89574318D02*
X180300238Y-89574318D01*
D10*
X105454819Y-94566666D02*
X104978628Y-94899999D01*
X105454819Y-95138094D02*
X104454819Y-95138094D01*
X104454819Y-95138094D02*
X104454819Y-94757142D01*
X104454819Y-94757142D02*
X104502438Y-94661904D01*
X104502438Y-94661904D02*
X104550057Y-94614285D01*
X104550057Y-94614285D02*
X104645295Y-94566666D01*
X104645295Y-94566666D02*
X104788152Y-94566666D01*
X104788152Y-94566666D02*
X104883390Y-94614285D01*
X104883390Y-94614285D02*
X104931009Y-94661904D01*
X104931009Y-94661904D02*
X104978628Y-94757142D01*
X104978628Y-94757142D02*
X104978628Y-95138094D01*
X104454819Y-93661904D02*
X104454819Y-94138094D01*
X104454819Y-94138094D02*
X104931009Y-94185713D01*
X104931009Y-94185713D02*
X104883390Y-94138094D01*
X104883390Y-94138094D02*
X104835771Y-94042856D01*
X104835771Y-94042856D02*
X104835771Y-93804761D01*
X104835771Y-93804761D02*
X104883390Y-93709523D01*
X104883390Y-93709523D02*
X104931009Y-93661904D01*
X104931009Y-93661904D02*
X105026247Y-93614285D01*
X105026247Y-93614285D02*
X105264342Y-93614285D01*
X105264342Y-93614285D02*
X105359580Y-93661904D01*
X105359580Y-93661904D02*
X105407200Y-93709523D01*
X105407200Y-93709523D02*
X105454819Y-93804761D01*
X105454819Y-93804761D02*
X105454819Y-94042856D01*
X105454819Y-94042856D02*
X105407200Y-94138094D01*
X105407200Y-94138094D02*
X105359580Y-94185713D01*
G04 #@! TO.C,C9*
D12*
X129450000Y-100800000D02*
X131050000Y-100800000D01*
X131050000Y-102200000D02*
X129450000Y-102200000D01*
G04 #@! TO.C,Q2*
D13*
X119200000Y-92600000D02*
X119600000Y-92600000D01*
X119200000Y-95500000D02*
X119200000Y-92600000D01*
X119600000Y-92600000D02*
X119600000Y-95500000D01*
X119600000Y-95500000D02*
X119200000Y-95500000D01*
X121050000Y-95550000D02*
X119950000Y-95550000D01*
G04 #@! TO.C,J1*
D12*
X90700000Y-106500000D02*
X91150000Y-106500000D01*
X90700000Y-108350000D02*
X90700000Y-106500000D01*
X90700000Y-110900000D02*
X90700000Y-110650000D01*
X92900000Y-105950000D02*
X92900000Y-106400000D01*
X92900000Y-105950000D02*
X93350000Y-105950000D01*
X98500000Y-106500000D02*
X98050000Y-106500000D01*
X98500000Y-108350000D02*
X98500000Y-106500000D01*
X98500000Y-110900000D02*
X98500000Y-110650000D01*
G04 #@! TO.C,R2*
X100800000Y-74800000D02*
X100800000Y-73200000D01*
X102200000Y-73200000D02*
X102200000Y-74800000D01*
G04 #@! TO.C,R7*
X122600000Y-92600000D02*
X122600000Y-91000000D01*
X124000000Y-91000000D02*
X124000000Y-92600000D01*
G04 #@! TO.C,IC3*
D14*
X136495000Y-71740000D02*
X136495000Y-71740000D01*
X136595000Y-71740000D02*
X136595000Y-71740000D01*
D13*
X137595000Y-64250000D02*
X155595000Y-64250000D01*
X137595000Y-71000000D02*
X137595000Y-64250000D01*
X137595000Y-89000000D02*
X137595000Y-89750000D01*
X137595000Y-89750000D02*
X140195000Y-89750000D01*
X152995000Y-89750000D02*
X155595000Y-89750000D01*
X155595000Y-64250000D02*
X155595000Y-71000000D01*
X155595000Y-89750000D02*
X155595000Y-89000000D01*
D14*
X136495000Y-71740000D02*
G75*
G02*
X136595000Y-71740000I50000J0D01*
G01*
X136595000Y-71740000D02*
G75*
G02*
X136495000Y-71740000I-50000J0D01*
G01*
G04 #@! TO.C,C6*
D12*
X98800000Y-89550000D02*
X98800000Y-87950000D01*
X100200000Y-87950000D02*
X100200000Y-89550000D01*
G04 #@! TO.C,U1*
X108500000Y-70090000D02*
X112260000Y-70090000D01*
X108500000Y-76910000D02*
X112260000Y-76910000D01*
X112260000Y-70090000D02*
X112260000Y-71350000D01*
X112260000Y-76910000D02*
X112260000Y-75650000D01*
X107220000Y-70190000D02*
X106980000Y-69860000D01*
X107460000Y-69860000D01*
X107220000Y-70190000D01*
G36*
X107220000Y-70190000D02*
G01*
X106980000Y-69860000D01*
X107460000Y-69860000D01*
X107220000Y-70190000D01*
G37*
G04 #@! TO.C,IC1*
D15*
X105775000Y-86850000D02*
G75*
G02*
X105525000Y-86850000I-125000J0D01*
G01*
X105525000Y-86850000D02*
G75*
G02*
X105775000Y-86850000I125000J0D01*
G01*
G04 #@! TO.C,Q1*
D13*
X119200000Y-88100000D02*
X119600000Y-88100000D01*
X119200000Y-91000000D02*
X119200000Y-88100000D01*
X119600000Y-88100000D02*
X119600000Y-91000000D01*
X119600000Y-91000000D02*
X119200000Y-91000000D01*
X121050000Y-91050000D02*
X119950000Y-91050000D01*
G04 #@! TO.C,SW1*
D12*
X113250000Y-107000000D02*
X113750000Y-107000000D01*
X113250000Y-107500000D02*
X113250000Y-107000000D01*
X113750000Y-108250000D02*
X113750000Y-110250000D01*
X114500000Y-106750000D02*
X118000000Y-106750000D01*
X114500000Y-111750000D02*
X118000000Y-111750000D01*
X118750000Y-108250000D02*
X118750000Y-110250000D01*
G04 #@! TO.C,SW2*
X126500000Y-107250000D02*
X127000000Y-107250000D01*
X126500000Y-107750000D02*
X126500000Y-107250000D01*
X127000000Y-108500000D02*
X127000000Y-110500000D01*
X127750000Y-107000000D02*
X131250000Y-107000000D01*
X127750000Y-112000000D02*
X131250000Y-112000000D01*
X132000000Y-108500000D02*
X132000000Y-110500000D01*
G04 #@! TO.C,R8*
X125900000Y-92400000D02*
X125900000Y-90800000D01*
X127300000Y-90800000D02*
X127300000Y-92400000D01*
G04 #@! TO.C,D1*
X103300000Y-76900000D02*
X101700000Y-76900000D01*
X103300000Y-78100000D02*
X101700000Y-78100000D01*
G04 #@! TO.C,R9*
X166950000Y-86300000D02*
X168550000Y-86300000D01*
X168550000Y-87700000D02*
X166950000Y-87700000D01*
G04 #@! TO.C,R3*
X109300000Y-99050000D02*
X109300000Y-97450000D01*
X110700000Y-97450000D02*
X110700000Y-99050000D01*
G04 #@! TO.C,C4*
X103800000Y-74800000D02*
X103800000Y-73200000D01*
X105200000Y-73200000D02*
X105200000Y-74800000D01*
G04 #@! TO.C,C8*
X115450000Y-101800000D02*
X117050000Y-101800000D01*
X117050000Y-103200000D02*
X115450000Y-103200000D01*
G04 #@! TO.C,C7*
X102300000Y-89550000D02*
X102300000Y-87950000D01*
X103700000Y-87950000D02*
X103700000Y-89550000D01*
G04 #@! TO.C,R11*
X157600000Y-81600000D02*
X157600000Y-80000000D01*
X159000000Y-80000000D02*
X159000000Y-81600000D01*
G04 #@! TO.C,R4*
X106100000Y-99000000D02*
X106100000Y-97400000D01*
X107500000Y-97400000D02*
X107500000Y-99000000D01*
G04 #@! TO.C,R6*
X109300000Y-95550000D02*
X109300000Y-93950000D01*
X110700000Y-93950000D02*
X110700000Y-95550000D01*
G04 #@! TO.C,C5*
X116650000Y-73100000D02*
X118250000Y-73100000D01*
X118250000Y-74500000D02*
X116650000Y-74500000D01*
G04 #@! TO.C,R10*
X157700000Y-77750000D02*
X157700000Y-76150000D01*
X159100000Y-76150000D02*
X159100000Y-77750000D01*
G04 #@! TO.C,IC2*
D14*
X170850000Y-87075000D02*
X170850000Y-87075000D01*
X170950000Y-87075000D02*
X170950000Y-87075000D01*
D13*
X171450000Y-85150000D02*
X186550000Y-85150000D01*
X171450000Y-92850000D02*
X171450000Y-85150000D01*
X186550000Y-85150000D02*
X186550000Y-92850000D01*
X186550000Y-92850000D02*
X171450000Y-92850000D01*
D14*
X170850000Y-87075000D02*
G75*
G02*
X170950000Y-87075000I50000J0D01*
G01*
X170950000Y-87075000D02*
G75*
G02*
X170850000Y-87075000I-50000J0D01*
G01*
G04 #@! TO.C,R5*
D12*
X106300000Y-95550000D02*
X106300000Y-93950000D01*
X107700000Y-93950000D02*
X107700000Y-95550000D01*
G04 #@! TD*
M02*
